<?xml version="1.0" standalone="no"?>
<!DOCTYPE svg PUBLIC "-//W3C//DTD SVG 20010904//EN"
 "http://www.w3.org/TR/2001/REC-SVG-20010904/DTD/svg10.dtd">
<svg version="1.0" xmlns="http://www.w3.org/2000/svg"
 width="640.000000pt" height="640.000000pt" viewBox="0 0 640.000000 640.000000"
 preserveAspectRatio="xMidYMid meet">

<g transform="translate(0.000000,640.000000) scale(0.100000,-0.100000)"
fill="#000000" stroke="none">
<path d="M0 4226 l0 -2174 39 5 c31 4 43 1 60 -16 24 -24 24 -39 -2 -55 -13
-8 -27 -6 -57 11 l-40 21 0 -1009 0 -1009 502 0 c276 0 498 3 495 7 -10 9 13
33 32 32 10 0 8 -3 -7 -10 -46 -18 -11 -26 122 -28 127 -2 135 -1 130 16 -5
15 -4 15 7 -2 12 -19 12 -19 20 0 7 17 8 18 8 3 1 -17 71 -18 1332 -18 1326 0
1331 0 1326 20 -3 11 -2 20 3 20 4 0 10 -9 13 -20 5 -20 10 -21 736 -20 450 1
731 5 731 11 0 5 -8 9 -17 10 -13 0 -14 2 -4 6 8 3 20 -3 28 -13 9 -12 16 -15
21 -8 4 6 21 14 37 18 l30 6 -25 -15 c-22 -13 7 -14 280 -14 218 1 307 4 312
13 5 7 8 6 8 -4 0 -13 1 -13 10 0 6 10 10 11 10 3 0 -10 33 -13 130 -13 l130
0 0 1145 0 1145 -33 0 c-40 0 -58 -17 -85 -85 -26 -64 -82 -246 -82 -267 0 -9
-5 -20 -10 -23 -7 -4 -6 -13 1 -26 13 -25 7 -33 -19 -25 -13 4 -22 19 -26 44
-3 20 -20 122 -36 226 -17 103 -32 192 -35 196 -2 3 -13 72 -25 151 -11 79
-23 159 -26 177 -3 17 -1 32 4 32 4 0 13 -23 18 -52 9 -51 10 -53 54 -66 25
-8 58 -14 73 -13 38 2 107 -17 107 -29 0 -6 7 -10 16 -10 8 0 25 -5 36 -11 21
-11 21 -12 -11 -39 -34 -31 -34 -32 20 -49 27 -9 39 -20 47 -44 7 -24 10 22
11 191 1 222 1 223 -21 233 l-23 10 23 -5 c20 -4 22 0 22 38 0 45 2 43 -96 80
l-30 11 33 22 c32 22 33 22 22 2 -6 -11 -8 -23 -6 -26 3 -2 10 5 17 16 6 12
15 19 20 16 5 -3 11 -1 15 4 3 5 -1 13 -8 18 -8 5 -22 62 -35 143 -12 74 -35
212 -52 305 -16 94 -30 181 -30 194 0 22 1 23 22 9 12 -8 26 -29 30 -45 8 -29
58 -75 58 -53 0 7 6 7 20 0 20 -11 21 -9 19 88 -1 96 -2 99 -23 94 -19 -5 -19
-4 -7 11 12 15 10 17 -15 17 l-29 1 25 15 25 15 -24 -5 c-13 -3 -44 4 -67 15
-24 10 -50 19 -58 19 -9 0 -16 6 -16 13 0 9 -9 12 -29 9 -32 -4 -129 40 -138
64 -3 9 -12 12 -25 8 -13 -4 -18 -2 -14 4 3 6 -1 17 -9 26 -9 8 -15 19 -15 23
0 4 -10 9 -24 11 -59 8 -31 48 50 72 38 11 44 10 100 -20 52 -28 57 -24 8 6
-12 7 -14 13 -7 17 6 4 18 1 26 -7 8 -8 50 -34 93 -59 125 -70 144 -82 144
-89 0 -13 -14 -9 -40 9 -23 16 -24 16 -11 0 7 -9 26 -23 41 -31 24 -12 28 -12
23 0 -3 8 0 14 6 14 7 0 11 33 11 96 l0 97 -40 -6 c-34 -4 -39 -3 -30 8 8 9
22 12 40 8 l28 -5 2 172 c0 116 -3 170 -10 165 -5 -3 -10 -2 -10 4 0 5 4 12 9
16 13 8 15 415 2 415 -14 0 -33 38 -26 51 5 7 11 6 21 -2 12 -10 14 95 14 745
l0 756 -310 0 c-178 -1 -310 -5 -310 -10 0 -5 -16 -12 -35 -16 -38 -7 -57 -39
-34 -56 10 -7 4 -7 -16 -3 -16 4 -35 11 -42 17 -15 12 -7 31 10 25 16 -5 40
20 32 33 -4 6 -59 10 -134 10 -102 0 -131 -3 -141 -15 -10 -12 -10 -15 1 -15
8 -1 2 -8 -13 -16 -28 -15 -38 -44 -16 -44 6 0 -9 -15 -33 -32 l-44 -33 30 -3
c17 -2 44 4 60 12 26 14 31 14 41 2 9 -13 18 -11 61 9 l51 23 -44 -43 c-24
-24 -44 -49 -44 -56 0 -7 -10 -9 -30 -6 -39 8 -46 -7 -15 -32 l26 -20 -50 -32
c-64 -42 -75 -64 -29 -56 18 3 41 9 51 13 35 13 -1 -29 -49 -58 -55 -34 -56
-48 -4 -38 45 8 47 5 20 -30 -11 -14 -20 -28 -20 -33 0 -7 -42 -56 -109 -126
l-34 -36 12 -110 c7 -60 21 -177 31 -260 21 -168 52 -417 76 -605 8 -69 19
-152 25 -185 5 -37 5 -63 -1 -69 -17 -17 -26 34 -64 344 -20 168 -48 395 -62
505 -14 110 -32 258 -40 330 -9 71 -17 131 -19 134 -2 2 -11 1 -20 -2 -20 -8
-19 -32 5 -218 41 -314 50 -388 70 -574 11 -104 27 -244 35 -310 18 -147 19
-168 3 -163 -14 5 -23 49 -37 178 -51 468 -72 656 -80 715 -6 39 -17 135 -26
215 -9 80 -19 166 -23 192 l-7 47 -24 -18 -24 -18 16 -154 c29 -280 66 -611
93 -829 37 -304 38 -320 26 -320 -11 0 -55 25 -162 91 -31 19 -64 39 -75 46
-11 6 -57 34 -102 62 -45 28 -86 51 -91 51 -5 0 -18 10 -30 23 -22 23 -23 34
-92 872 -6 66 -15 163 -20 215 -5 52 -14 155 -21 228 -6 72 -13 132 -15 132
-2 0 -171 -118 -394 -274 l-65 -46 -7 57 c-4 32 -11 129 -16 216 -5 86 -12
160 -16 164 -3 4 -12 0 -20 -8 -11 -11 -11 -44 -4 -169 4 -85 12 -183 16 -217
6 -46 5 -63 -3 -63 -7 0 -40 18 -73 40 -55 35 -62 44 -68 79 -4 23 -10 38 -15
35 -5 -3 -6 2 -3 10 3 9 3 16 0 16 -4 0 -123 -86 -264 -192 -466 -347 -462
-344 -471 -331 -3 6 -17 14 -31 18 -13 4 -30 14 -38 21 -7 8 -19 14 -27 14 -7
0 -15 7 -19 15 -3 8 -13 15 -22 15 -9 0 -27 9 -41 20 -14 11 -32 20 -39 20 -8
0 -14 5 -14 11 0 5 -15 16 -34 24 -19 8 -37 19 -41 25 -3 5 -15 10 -25 10 -11
0 -24 9 -30 20 -6 11 -18 20 -26 20 -9 0 -27 9 -41 20 -14 11 -32 20 -39 20
-7 0 -18 9 -24 20 -6 11 -19 20 -29 20 -10 0 -26 9 -36 20 -10 11 -25 20 -34
20 -9 0 -24 9 -34 20 -9 11 -24 20 -32 20 -8 0 -24 9 -36 21 -12 12 -29 19
-40 16 -12 -3 -19 0 -19 8 0 16 -12 25 -39 30 -11 2 -29 13 -41 25 -12 12 -28
19 -36 16 -17 -6 -18 -1 -4 25 13 24 2 25 -16 2 -7 -10 -14 -13 -14 -6 0 6
-14 14 -30 18 -33 7 -55 38 -45 63 5 14 4 14 -13 -1 -25 -23 -34 -21 -60 8
-12 14 -28 25 -36 25 -7 0 -25 9 -40 21 -15 11 -33 18 -41 15 -29 -11 -15 4
23 23 44 24 36 27 -14 6 -31 -13 -36 -13 -41 0 -3 9 -3 24 0 35 3 11 1 23 -4
26 -5 3 -9 -6 -9 -20 0 -18 -5 -26 -17 -26 -14 0 -15 2 -5 9 10 6 10 10 -3 21
-9 7 -13 21 -10 31 8 26 -3 24 -25 -3 -10 -13 -22 -20 -26 -16 -4 4 -2 14 5
22 9 11 6 14 -16 14 -16 0 -34 -5 -40 -10 -9 -7 -13 -7 -13 1 0 8 -42 11 -136
11 -88 0 -133 -3 -129 -10 8 -14 -4 -50 -16 -50 -7 0 -8 12 -4 30 l7 30 -75 0
c-69 0 -74 -2 -85 -25 -7 -14 -15 -45 -18 -68 -13 -81 -25 -75 -22 11 l3 82
-32 0 c-29 0 -33 -3 -33 -26 0 -16 -5 -24 -12 -21 -7 2 -12 11 -10 18 2 9 0
11 -6 4 -6 -5 -12 -21 -15 -35 -3 -18 -5 -15 -6 13 -2 58 -20 43 -23 -20 l-3
-58 -9 63 -9 62 -53 0 -54 0 5 -42 c3 -24 8 -56 11 -72 l4 -30 -24 23 c-14 13
-30 45 -36 72 -7 27 -16 49 -20 49 -14 0 -19 -55 -6 -70 8 -8 16 -28 20 -45
l7 -30 -21 25 c-11 14 -20 29 -20 33 0 5 -4 6 -9 2 -6 -3 -7 6 -2 23 9 30 -4
66 -20 57 -5 -4 -9 -20 -9 -37 l0 -30 -44 36 -44 36 -436 0 -436 0 0 -2174z
m1272 2030 c-4 -80 -15 -99 -26 -41 -9 49 3 138 18 126 7 -6 10 -37 8 -85z
m656 75 c3 -8 -1 -12 -9 -9 -7 2 -15 10 -17 17 -3 8 1 12 9 9 7 -2 15 -10 17
-17z m-460 -16 c-6 -14 -13 -23 -15 -21 -5 5 15 46 22 46 3 0 -1 -11 -7 -25z
m53 -8 c-10 -9 -11 -8 -5 6 3 10 9 15 12 12 3 -3 0 -11 -7 -18z m199 -6 c0
-23 -14 -41 -31 -41 -21 0 -25 20 -7 38 14 14 38 16 38 3z m4340 -17 c0 -8 -7
-14 -15 -14 -15 0 -21 21 -9 33 10 9 24 -2 24 -19z m-4480 8 c0 -5 -7 -17 -15
-28 -14 -18 -14 -17 -4 9 12 27 19 34 19 19z m4160 4 c0 -3 -4 -8 -10 -11 -5
-3 -10 -1 -10 4 0 6 5 11 10 11 6 0 10 -2 10 -4z m-3940 -51 c0 -8 -4 -15 -10
-15 -5 0 -7 7 -4 15 4 8 8 15 10 15 2 0 4 -7 4 -15z m-780 -5 c0 -5 -2 -10 -4
-10 -3 0 -8 5 -11 10 -3 6 -1 10 4 10 6 0 11 -4 11 -10z m650 1 c0 -5 -7 -14
-15 -21 -16 -14 -18 -10 -9 14 6 17 24 22 24 7z m217 -37 c-3 -3 -12 -4 -19
-1 -8 3 -5 6 6 6 11 1 17 -2 13 -5z m3723 -43 c0 -20 -43 -65 -53 -55 -3 3 1
17 10 30 8 13 12 24 9 24 -4 0 -1 6 6 14 16 17 28 11 28 -13z m-4647 -109 c20
-18 22 -29 4 -29 -7 0 -24 -3 -39 -6 -17 -5 -30 -2 -38 8 -6 7 -18 11 -27 8
-13 -5 -11 -9 8 -24 l24 -18 -22 -23 -23 -22 -6 31 c-6 28 -8 30 -21 18 -8 -8
-11 -19 -8 -25 3 -5 2 -10 -4 -10 -5 0 -12 8 -14 18 -12 46 -5 -28 7 -83 8
-33 13 -61 11 -63 -1 -2 -19 20 -40 48 -20 27 -38 50 -40 50 -4 0 27 -59 47
-90 9 -14 35 -85 58 -159 23 -74 44 -141 47 -150 4 -11 3 -13 -5 -6 -5 6 -15
26 -21 45 -15 54 -106 292 -119 315 -9 16 -10 9 -5 -36 3 -34 1 -64 -6 -75
-10 -18 -11 -18 -17 4 -9 33 -24 27 -18 -8 4 -20 1 -34 -10 -45 -15 -16 -16
-11 -15 59 1 42 5 76 10 76 5 0 9 -10 10 -22 0 -13 3 -18 5 -12 3 6 1 30 -5
53 -8 36 9 242 24 288 4 12 214 -85 248 -115z m1000 103 c0 -6 -7 -11 -16 -13
-12 -3 -15 1 -11 13 7 17 25 17 27 0z m-706 -32 c-3 -10 -5 -4 -5 12 0 17 2
24 5 18 2 -7 2 -21 0 -30z m4303 27 c0 -5 -5 -10 -11 -10 -5 0 -7 5 -4 10 3 6
8 10 11 10 2 0 4 -4 4 -10z m-3522 -78 c-27 -5 -34 4 -18 23 11 14 14 13 26
-2 11 -16 10 -18 -8 -21z m-126 -4 c-7 -7 -12 -8 -12 -2 0 14 12 26 19 19 2
-3 -1 -11 -7 -17z m-355 -25 c-3 -10 -5 -4 -5 12 0 17 2 24 5 18 2 -7 2 -21 0
-30z m-53 -21 c-4 -18 -11 -32 -15 -32 -9 0 -2 44 8 63 10 16 13 0 7 -31z
m4193 16 c-3 -8 -6 -5 -6 6 -1 11 2 17 5 13 3 -3 4 -12 1 -19z m-3704 -2 c-13
-21 -61 -76 -67 -76 -14 0 -4 22 25 55 30 34 58 49 42 21z m3612 -44 c-2 -3
-11 3 -19 11 -9 8 -21 17 -28 19 -6 2 -8 10 -4 17 6 9 14 4 31 -16 14 -15 22
-29 20 -31z m-4548 11 c-3 -10 -5 -4 -5 12 0 17 2 24 5 18 2 -7 2 -21 0 -30z
m866 17 c-5 -19 -23 -39 -23 -25 0 9 20 45 24 45 2 0 2 -9 -1 -20z m227 11 c0
-6 -4 -12 -9 -15 -13 -8 -42 4 -35 15 7 12 44 12 44 0z m-40 -31 c13 -8 13
-11 -2 -27 -17 -16 -19 -16 -34 -1 -28 27 1 50 36 28z m-1121 -88 c19 -78 21
-91 12 -96 -5 -4 -15 10 -21 30 -7 19 -14 34 -16 32 -2 -2 6 -32 16 -67 11
-34 20 -73 19 -84 -1 -31 -49 120 -53 168 -2 22 -5 45 -6 50 -5 21 1 25 20 15
10 -6 24 -27 29 -48z m1075 16 c-5 -8 -42 -2 -53 8 -2 2 2 10 9 19 12 14 15
14 31 -1 10 -9 16 -21 13 -26z m196 34 c0 -4 14 -13 32 -20 17 -6 29 -14 26
-17 -7 -8 -78 26 -78 37 0 4 5 8 10 8 6 0 10 -4 10 -8z m-1324 -186 c36 -146
37 -152 29 -144 -13 12 -94 260 -90 273 15 47 18 51 22 30 3 -11 20 -83 39
-159z m1319 142 l37 -21 -49 -19 c-26 -10 -56 -17 -66 -14 -11 3 -17 0 -14 -7
2 -6 -16 -22 -41 -35 -35 -19 -47 -21 -56 -11 -8 9 -7 11 6 6 11 -4 15 -2 12
6 -2 7 10 21 28 32 18 10 49 34 68 52 19 18 36 33 37 33 1 0 18 -10 38 -22z
m3305 -28 c0 -5 -7 -10 -15 -10 -8 0 -15 5 -15 10 0 6 7 10 15 10 8 0 15 -4
15 -10z m-4217 -15 c-3 -9 -8 -14 -10 -11 -3 3 -2 9 2 15 9 16 15 13 8 -4z
m1064 -1 c-3 -3 -12 -4 -19 -1 -8 3 -5 6 6 6 11 1 17 -2 13 -5z m38 -4 c-3 -5
-12 -10 -18 -10 -7 0 -6 4 3 10 19 12 23 12 15 0z m-72 -18 l27 -19 -25 -11
c-13 -6 -60 -20 -102 -31 -100 -26 -131 -33 -115 -25 6 3 10 10 7 14 -7 11 29
31 47 27 7 -2 9 -2 5 1 -10 5 91 60 113 61 8 0 27 -7 43 -17z m-1016 -17 c-4
-8 -11 -15 -17 -15 -6 0 -6 7 2 20 14 22 24 19 15 -5z m-44 0 c-3 -9 -8 -14
-10 -11 -3 3 -2 9 2 15 9 16 15 13 8 -4z m1202 -5 c-3 -5 -13 -10 -21 -10 -8
0 -14 5 -14 10 0 6 9 10 21 10 11 0 17 -4 14 -10z m2889 -9 c3 -5 -9 -11 -27
-14 -17 -3 -41 -9 -52 -13 -12 -4 -17 -3 -12 2 8 8 63 31 79 33 4 1 9 -3 12
-8z m-2965 -16 c-2 -12 -86 -38 -102 -32 -15 6 73 48 91 44 7 -1 12 -6 11 -12z
m-1417 -35 c5 -36 -8 -41 -14 -5 -4 21 -1 35 8 35 1 0 4 -13 6 -30z m323 -35
c-3 -35 -10 -77 -14 -92 -7 -27 -8 -26 -14 15 -8 50 11 142 30 142 3 0 2 -29
-2 -65z m-29 28 c-10 -10 -19 5 -10 18 6 11 8 11 12 0 2 -7 1 -15 -2 -18z
m724 23 c0 -3 -4 -8 -10 -11 -5 -3 -10 -1 -10 4 0 6 5 11 10 11 6 0 10 -2 10
-4z m601 -87 c92 -53 156 -96 152 -102 -3 -6 -1 -7 5 -3 12 7 98 -36 267 -134
50 -29 124 -71 165 -93 41 -22 108 -60 148 -84 41 -24 77 -43 81 -43 4 0 18
-10 31 -22 14 -13 26 -21 28 -19 2 2 66 -31 143 -73 139 -78 139 -78 117 -96
-60 -46 -107 -61 -171 -55 -34 4 -69 13 -78 21 -10 9 -24 12 -34 8 -13 -5 -16
-4 -11 4 5 8 0 12 -13 12 -10 0 -42 15 -71 34 l-51 34 33 27 c18 15 29 25 23
23 -5 -3 -26 -12 -46 -21 -41 -19 -77 -17 -113 6 -14 9 -30 17 -36 17 -6 0
-32 14 -57 32 -25 17 -43 26 -39 20 5 -8 2 -10 -8 -6 -9 3 -16 10 -16 15 0 11
-58 41 -69 35 -9 -6 -8 25 3 42 8 13 0 14 -29 3 -11 -5 -30 -2 -45 6 -14 7
-30 13 -37 13 -7 0 -29 12 -50 26 -21 14 -56 34 -79 44 -22 11 -47 26 -54 35
-7 9 -19 14 -27 11 -7 -3 -13 -2 -13 3 0 8 -38 24 -52 22 -14 -2 -9 7 17 34
29 28 23 32 -15 10 -37 -21 -58 -18 -135 21 -64 32 -62 35 11 18 20 -5 25 -3
22 7 -6 17 -40 27 -101 28 -32 1 -46 5 -41 12 4 6 -1 10 -12 8 -11 -1 -30 3
-44 9 -100 42 -103 35 28 66 165 39 189 46 127 40 -137 -14 -267 -16 -260 -4
6 9 2 9 -13 1 -14 -7 -23 -8 -27 -1 -3 5 -5 10 -3 10 2 1 62 21 133 45 72 24
136 44 144 44 8 1 85 -40 172 -90z m-1865 -2 c22 -58 17 -67 -11 -19 -18 32
-23 51 -18 70 6 23 8 24 11 7 2 -11 10 -37 18 -58z m4694 43 c0 -10 -31 -23
-38 -15 -8 7 19 35 29 29 5 -3 9 -9 9 -14z m-64 -3 c-11 -7 -30 -22 -42 -33
-13 -12 -25 -19 -28 -17 -9 9 -37 -19 -33 -31 3 -6 -1 -20 -6 -31 -10 -19 -12
-18 -18 10 -4 17 -7 47 -8 68 -1 34 1 37 25 37 22 0 25 -2 14 -15 -14 -17 0
-20 28 -6 17 9 72 28 82 29 3 1 -4 -5 -14 -11z m-4690 -68 c-3 -17 -6 -48 -6
-68 l-1 -36 -19 24 c-24 28 -28 76 -5 67 11 -4 15 1 15 19 0 14 5 25 11 25 8
0 9 -11 5 -31z m1450 12 c-4 -6 -14 -7 -23 -4 -15 6 -14 7 3 13 22 9 29 6 20
-9z m3304 0 c0 -5 -10 -16 -22 -25 -16 -12 -19 -18 -10 -22 8 -4 5 -12 -13
-26 -46 -36 -21 -52 36 -22 l30 15 -17 -33 c-9 -18 -27 -46 -40 -61 -13 -16
-24 -36 -24 -44 0 -14 3 -13 21 3 17 16 22 16 29 4 6 -8 10 -25 10 -37 0 -21
-3 -22 -47 -16 -27 3 -49 6 -50 7 -1 1 -7 43 -13 94 l-11 92 32 28 c52 44 89
62 89 43z m-4453 -23 c-3 -8 -6 -5 -6 6 -1 11 2 17 5 13 3 -3 4 -12 1 -19z
m813 -52 c0 -7 -23 -23 -51 -35 -62 -27 -102 -24 -44 3 22 10 44 25 48 32 10
18 47 18 47 0z m-1153 -39 c6 -29 6 -51 0 -65 -12 -26 -30 -24 -35 3 -5 25 8
105 17 105 4 0 12 -19 18 -43z m4943 30 c0 -7 -9 -18 -21 -25 -17 -11 -20 -11
-13 0 20 36 34 46 34 25z m-4572 -74 c13 -93 8 -108 -8 -26 -6 32 -14 68 -17
81 -3 12 -1 22 4 22 6 0 15 -35 21 -77z m4277 -25 c3 -40 13 -115 21 -165 17
-114 18 -133 1 -133 -13 0 -17 22 -48 283 -5 43 -7 83 -3 88 12 21 22 -4 29
-73z m-4584 -11 c-11 -11 -32 48 -24 70 5 12 10 6 20 -22 8 -23 10 -42 4 -48z
m1038 59 c-13 -12 -170 -126 -174 -126 -3 0 -5 5 -5 10 0 20 54 62 115 91 57
28 74 34 64 25z m92 -26 c12 4 119 -52 120 -62 0 -7 0 -38 -1 -69 -1 -32 3
-60 8 -63 6 -4 9 12 9 40 l-2 45 30 -33 c17 -19 40 -47 53 -64 l23 -29 -23 40
c-12 22 -33 55 -45 74 -25 36 -23 57 2 25 15 -18 15 -18 8 0 -6 17 -3 16 28
-5 19 -13 60 -47 91 -75 71 -65 130 -108 108 -79 -8 11 -27 33 -42 50 -39 42
-35 49 12 20 22 -14 42 -25 46 -25 3 0 31 -20 63 -45 61 -48 90 -61 44 -20
-22 19 -23 24 -8 18 11 -3 25 -10 32 -15 7 -6 18 -6 24 -2 7 4 10 3 7 -2 -3
-5 51 -37 121 -71 150 -74 496 -241 636 -308 275 -130 426 -207 430 -218 2 -7
6 -62 9 -124 2 -62 7 -116 10 -121 3 -6 -3 -20 -13 -33 -10 -13 -23 -35 -30
-49 -10 -21 -9 -22 1 -7 7 10 18 26 25 35 16 24 23 12 24 -45 2 -49 -22 -113
-41 -113 -13 0 -13 4 5 47 8 20 13 38 11 41 -5 5 -46 -58 -46 -70 0 -5 -5 -8
-11 -8 -8 0 -9 12 -5 33 5 31 5 32 -8 8 -13 -23 -14 -23 -18 -5 -2 12 -13 -6
-30 -51 -17 -45 -27 -61 -27 -45 -1 43 25 136 46 166 11 16 23 35 28 43 13 23
-37 -18 -65 -53 -17 -21 -18 -26 -5 -16 17 14 18 13 11 -5 -4 -11 -13 -32 -18
-47 -5 -16 -15 -28 -20 -28 -17 0 -2 76 22 110 12 16 17 30 12 30 -23 0 -122
-194 -122 -239 0 -11 -5 -23 -12 -27 -13 -8 -4 159 11 199 4 12 11 36 14 52 5
23 2 20 -14 -14 -21 -48 -36 -52 -19 -5 8 21 8 26 0 18 -12 -12 -58 -174 -72
-254 -12 -71 -18 -75 -20 -14 -3 78 0 94 27 161 32 80 32 96 0 49 -13 -20 -22
-42 -19 -50 3 -8 1 -23 -5 -33 -8 -14 -10 -15 -11 -3 0 13 -1 13 -10 0 -9 -13
-10 -13 -11 0 0 10 -3 9 -10 -5 -6 -14 -7 -8 -2 20 12 72 12 128 0 116 -16
-16 -48 -13 -64 7 -8 9 -12 11 -8 5 4 -8 -1 -13 -12 -13 -10 0 -35 -9 -56 -20
-55 -29 -45 -9 23 50 62 54 75 79 21 40 -21 -14 -29 -17 -25 -7 3 8 -25 -15
-62 -51 -66 -65 -67 -66 -75 -42 l-7 25 -1 -26 c-1 -14 -22 -52 -47 -85 -26
-32 -60 -83 -76 -111 -47 -84 -46 -67 3 42 14 32 108 176 119 185 4 3 10 14
14 26 3 11 19 41 35 66 23 36 36 47 67 53 38 8 38 8 11 14 l-29 6 21 26 c25
32 19 39 -23 32 l-33 -5 2 56 c1 31 9 66 19 80 17 28 21 51 7 41 -5 -3 -12 3
-14 12 -3 10 -5 2 -6 -18 -1 -39 -54 -103 -64 -77 -3 7 -6 3 -6 -9 -1 -30
-111 -215 -111 -186 0 12 134 269 152 290 19 23 2 24 -25 3 -25 -20 -26 -20
-36 -2 -5 10 -7 29 -4 42 l6 23 -21 -21 c-29 -29 -44 -28 -36 3 9 37 -4 30
-15 -7 -9 -32 -9 -31 -8 13 1 26 5 45 9 43 12 -8 18 51 9 101 -8 48 -17 32
-12 -23 1 -15 -2 -21 -8 -17 -6 3 -11 0 -11 -7 0 -20 -32 -98 -41 -98 -4 0
-10 8 -12 18 -2 9 -2 2 0 -15 6 -49 -7 -105 -23 -99 -7 3 -15 0 -17 -7 -9 -24
-19 202 -12 262 5 42 4 61 -4 61 -7 0 -11 -24 -12 -62 -2 -82 -15 -206 -17
-157 -1 20 -9 52 -17 70 -15 33 -15 31 -10 -54 3 -49 7 -93 11 -98 3 -5 2 -30
-2 -57 l-7 -47 -18 70 c-10 39 -19 91 -19 118 0 32 -4 47 -13 47 -8 0 -20 19
-27 43 -17 56 -24 32 -11 -39 17 -91 12 -104 -13 -36 -28 74 -39 89 -35 47 1
-16 1 -39 1 -49 -2 -20 -2 -20 -17 0 -31 38 -6 -47 41 -139 25 -49 43 -91 41
-93 -8 -8 -93 128 -111 179 -10 27 -20 46 -23 44 -11 -12 74 -205 104 -237 38
-41 44 -60 9 -33 -92 71 -137 103 -146 103 -5 0 -10 4 -10 9 0 5 -9 11 -19 14
-27 7 -17 -15 17 -35 15 -9 43 -31 62 -48 l35 -31 -45 26 c-25 14 -57 31 -72
37 -16 5 -26 14 -23 18 3 4 -5 6 -17 2 -19 -5 -18 -7 15 -26 55 -32 42 -45
-33 -33 -9 1 -31 17 -50 34 -19 18 -39 33 -43 33 -5 0 -6 4 -3 9 3 5 -1 11 -9
15 -8 3 -15 13 -15 21 0 10 5 13 13 9 6 -5 -4 9 -23 29 -19 20 -44 37 -55 37
-19 -1 -19 -2 3 -14 21 -11 17 -12 -37 -12 -34 1 -61 4 -61 9 0 4 4 7 9 7 5 0
12 8 16 18 5 14 4 15 -6 5 -7 -7 -24 -13 -39 -13 l-25 0 29 15 c33 17 88 20
119 4 19 -9 19 -8 -3 11 -25 22 -58 23 -155 5 -25 -4 -22 -1 15 17 29 14 39
23 29 25 -10 2 -19 13 -22 24 -6 21 17 41 61 54 23 7 23 7 5 27 -14 15 -26 19
-55 15 -24 -3 -36 -1 -32 5 3 5 -16 -7 -44 -26 -27 -20 -53 -36 -57 -36 -4 0
12 22 34 49 41 48 52 69 30 55 -7 -4 -10 -1 -7 7 3 8 11 13 17 11 6 -1 10 3 9
10 -2 6 13 22 32 36 l35 25 -30 -7 c-20 -5 -70 -47 -147 -124 -65 -64 -118
-111 -118 -105 0 6 10 24 23 40 13 15 46 59 73 98 27 38 63 82 79 97 22 20 26
27 14 28 -9 0 -29 -17 -45 -37 -15 -21 -33 -42 -39 -48 -6 -5 -33 -37 -60 -70
-27 -33 -53 -64 -58 -70 -10 -10 62 127 94 181 11 19 18 48 17 71 l-1 40 -24
-26 c-21 -22 -23 -23 -19 -6 3 11 7 34 10 50 6 30 6 30 -6 -2 -6 -18 -17 -33
-25 -33 -10 0 -11 5 -3 19 19 37 -19 17 -50 -26 -17 -23 -37 -44 -46 -47 -10
-4 -14 -13 -10 -22 3 -8 2 -12 -4 -9 -5 3 -15 -5 -22 -19 -10 -24 -38 -37 -38
-17 0 4 23 38 50 74 28 36 50 69 50 73 0 4 8 16 18 27 11 14 12 18 2 12 -8 -5
-33 -8 -57 -6 -38 2 -43 0 -43 -19 0 -12 5 -18 10 -15 13 8 13 -5 0 -25 -9
-13 -10 -13 -10 0 0 10 -8 5 -21 -12 -22 -30 -45 -38 -35 -13 7 18 -5 20 -23
3 -11 -11 -12 -8 -7 12 6 25 6 25 -5 3 -13 -24 -26 -28 -47 -15 -9 6 2 25 39
68 29 32 55 61 58 64 3 3 15 16 26 30 l20 25 -25 -20 c-14 -11 -37 -31 -52
-44 -20 -17 -28 -20 -28 -10 0 14 49 77 103 132 15 16 27 32 27 37 0 5 20 25
45 45 24 20 43 42 42 48 -3 15 66 48 74 35 3 -5 8 -9 10 -8z m3728 -7 c-9 -11
-10 -14 -1 -9 21 13 13 -6 -14 -31 -14 -13 -28 -22 -31 -19 -12 11 10 62 30
72 28 13 33 9 16 -13z m-4809 -30 c0 -22 -8 -14 -19 20 -10 29 -9 30 4 13 8
-11 15 -26 15 -33z m4851 20 c-8 -15 -10 -15 -11 -2 0 17 10 32 18 25 2 -3 -1
-13 -7 -23z m-4782 -43 c0 -9 -6 -4 -14 10 -8 14 -14 32 -14 40 0 9 6 4 14
-10 8 -14 14 -32 14 -40z m4661 30 c0 -5 -4 -10 -10 -10 -5 0 -10 5 -10 10 0
6 5 10 10 10 6 0 10 -4 10 -10z m-1113 -190 l0 -65 -7 60 c-4 33 -8 89 -7 125
l0 65 7 -60 c4 -33 8 -89 7 -125z m-3674 93 c8 -41 -3 -42 -27 -2 -12 20 -16
39 -11 57 l7 27 12 -25 c7 -14 16 -40 19 -57z m22 67 c3 -5 1 -10 -4 -10 -6 0
-11 5 -11 10 0 6 2 10 4 10 3 0 8 -4 11 -10z m3432 -32 c-3 -7 -5 -2 -5 12 0
14 2 19 5 13 2 -7 2 -19 0 -25z m1432 0 c-6 -13 -21 -31 -32 -40 -12 -9 -26
-31 -32 -49 -6 -18 -18 -35 -26 -37 -11 -4 -12 -2 -1 9 6 7 12 18 12 23 0 6
-11 -5 -24 -24 -21 -30 -110 -81 -120 -69 -2 2 -6 30 -10 63 l-6 58 27 -6 c16
-4 46 -9 68 -12 38 -5 41 -4 65 36 20 33 53 59 88 69 1 1 -2 -9 -9 -21z
m-1012 -10 c-3 -8 -6 -5 -6 6 -1 11 2 17 5 13 3 -3 4 -12 1 -19z m-2372 -8 c3
-6 -1 -7 -9 -4 -18 7 -21 14 -7 14 6 0 13 -4 16 -10z m-645 -7 c0 -7 -78 -83
-87 -83 -6 0 11 24 46 63 24 26 41 35 41 20z m591 -20 c13 -16 12 -17 -3 -4
-10 7 -18 15 -18 17 0 8 8 3 21 -13z m3643 -24 c-4 -6 -11 -6 -20 2 -21 17
-17 31 6 19 11 -6 18 -15 14 -21z m-14 -38 c0 -11 -6 -7 -18 12 -10 15 -22 24
-25 20 -4 -3 -7 -2 -7 4 0 5 3 13 7 17 10 10 43 -31 43 -53z m-1613 -13 c-2
-13 -4 -3 -4 22 0 25 2 35 4 23 2 -13 2 -33 0 -45z m-3250 10 c-3 -8 -6 -5 -6
6 -1 11 2 17 5 13 3 -3 4 -12 1 -19z m1403 -15 c0 -7 -39 17 -46 28 -3 6 5 3
20 -6 14 -10 26 -19 26 -22z m3246 10 c-10 -10 -19 5 -10 18 6 11 8 11 12 0 2
-7 1 -15 -2 -18z m-4021 -13 c-3 -5 -20 -19 -38 -31 l-32 -22 29 31 c28 30 55
44 41 22z m-611 -16 c3 -8 2 -12 -4 -9 -6 3 -10 10 -10 16 0 14 7 11 14 -7z
m508 -6 c-7 -7 -12 -8 -12 -2 0 14 12 26 19 19 2 -3 -1 -11 -7 -17z m-85 -25
c-3 -10 -5 -4 -5 12 0 17 2 24 5 18 2 -7 2 -21 0 -30z m2520 8 c-1 -13 -7 -17
-22 -12 -18 5 -18 6 -2 9 11 2 16 9 13 18 -3 8 -2 12 3 9 6 -3 9 -14 8 -24z
m1903 19 c0 -5 -12 -10 -26 -10 -14 0 -23 4 -19 10 3 6 15 10 26 10 10 0 19
-4 19 -10z m-233 -22 c1 -12 -8 -30 -20 -41 -20 -17 -22 -17 -25 -2 -4 17 23
65 36 65 4 0 8 -10 9 -22z m-2050 -18 c14 -11 21 -20 15 -20 -6 0 -17 6 -24
13 -7 8 -20 16 -28 20 -11 4 -11 6 -2 6 8 1 25 -8 39 -19z m2177 -46 c-7 -6
-11 -14 -8 -17 3 -3 -1 -18 -10 -34 -15 -27 -15 -27 -16 -5 0 21 -3 23 -32 17
-18 -4 -30 -4 -26 0 4 4 2 17 -3 28 -10 18 -9 19 18 14 22 -4 34 0 53 20 22
23 25 24 31 7 4 -12 1 -23 -7 -30z m-4282 -1 c-36 -46 -72 -79 -72 -67 0 13
80 104 92 104 5 0 -4 -17 -20 -37z m4014 13 c3 -8 -1 -27 -9 -42 l-14 -27 -6
33 c-4 17 -4 36 -1 41 8 14 24 11 30 -5z m-1831 -6 c-3 -5 -1 -10 6 -10 7 0
10 -3 6 -6 -9 -9 -28 6 -22 17 4 5 8 9 11 9 3 0 2 -4 -1 -10z m1905 -33 c0 -5
-9 -18 -21 -28 -16 -14 -19 -25 -14 -49 8 -35 -7 -60 -36 -60 -31 0 -24 57 14
117 24 38 35 48 45 41 6 -6 12 -15 12 -21z m790 29 c0 -3 -4 -8 -10 -11 -5 -3
-10 -1 -10 4 0 6 5 11 10 11 6 0 10 -2 10 -4z m-4560 -14 c0 -5 -10 -17 -22
-28 -20 -18 -21 -18 -15 -1 4 10 7 23 7 28 0 5 7 9 15 9 8 0 15 -4 15 -8z
m2175 -2 c3 -5 1 -10 -4 -10 -6 0 -11 5 -11 10 0 6 2 10 4 10 3 0 8 -4 11 -10z
m1844 -8 c7 -13 6 -23 -1 -30 -19 -19 -28 -14 -28 18 0 34 14 39 29 12z
m-2084 -21 c-6 -5 -25 10 -25 20 0 5 6 4 14 -3 8 -7 12 -15 11 -17z m532 -8
c-3 -10 -5 -4 -5 12 0 17 2 24 5 18 2 -7 2 -21 0 -30z m1163 25 c0 -7 7 -76
15 -153 9 -89 11 -143 5 -149 -5 -5 -12 -8 -14 -5 -2 2 -9 54 -15 114 -6 61
-14 131 -17 158 -5 39 -3 47 10 47 9 0 16 -6 16 -12z m-1654 -33 c9 -8 11 -15
6 -15 -5 0 -15 7 -22 15 -7 8 -9 15 -6 15 4 0 14 -7 22 -15z m2570 -33 c-12
-11 -18 7 -10 30 l8 23 4 -23 c2 -13 1 -26 -2 -30z m-5596 -12 l0 -24 -15 21
c-8 12 -12 29 -9 38 9 22 24 0 24 -35z m1140 33 c0 -3 -12 -26 -26 -50 -14
-25 -24 -47 -21 -49 2 -3 14 11 25 31 21 35 42 46 42 22 0 -19 -60 -87 -77
-87 -10 0 -13 6 -9 18 7 18 -42 -32 -60 -64 -7 -10 -15 -16 -19 -12 -4 3 19
50 50 102 40 67 63 96 76 96 11 0 19 -3 19 -7z m1934 -8 c3 -8 14 -15 25 -15
10 0 22 -7 25 -16 4 -9 13 -14 21 -10 9 3 18 -1 21 -9 4 -8 14 -15 23 -15 10
0 18 -6 18 -14 0 -13 -5 -13 -36 0 -19 8 -38 18 -41 23 -3 4 -19 16 -37 26
-31 18 -51 45 -34 45 5 0 11 -7 15 -15z m1943 -20 c-4 -8 -11 -15 -17 -15 -6
0 -6 7 2 20 14 22 24 19 15 -5z m51 8 c-14 -17 -28 -16 -28 1 0 8 9 14 19 13
15 -1 17 -4 9 -14z m-4490 -46 c-14 -29 -28 -36 -28 -12 0 8 5 15 10 15 6 0
10 10 10 22 0 15 3 19 10 12 7 -7 6 -19 -2 -37z m286 19 c-4 -11 -45 -36 -58
-36 -2 0 -1 11 2 25 3 20 10 25 33 25 20 0 27 -4 23 -14z m4228 2 c6 -51 3
-79 -13 -116 -11 -24 -23 -40 -29 -37 -12 7 -14 65 -2 65 5 0 17 7 28 16 18
15 18 15 0 10 -15 -5 -17 -2 -12 18 4 15 1 26 -6 28 -15 5 -1 28 18 28 8 0 15
-6 16 -12z m-4308 -23 c-4 -8 -8 -15 -10 -15 -2 0 -4 7 -4 15 0 8 4 15 10 15
5 0 7 -7 4 -15z m140 -20 c-4 -8 -10 -15 -15 -15 -5 0 -9 7 -9 15 0 8 7 15 15
15 9 0 12 -6 9 -15z m4036 -20 c0 -25 -14 -34 -24 -16 -8 12 3 41 15 41 5 0 9
-11 9 -25z m42 -68 c-3 -10 -10 -16 -16 -14 -6 3 -9 11 -7 18 2 8 3 32 3 54
l-1 40 13 -40 c7 -22 10 -48 8 -58z m-4769 63 c3 -11 1 -18 -4 -14 -5 3 -9 12
-9 20 0 20 7 17 13 -6z m301 -33 l-16 -22 6 25 c3 14 6 32 6 40 1 12 3 11 11
-3 7 -13 6 -23 -7 -40z m2616 43 c0 -5 7 -10 16 -10 8 0 12 -4 9 -10 -3 -6 1
-7 9 -4 9 4 16 1 16 -6 0 -7 7 -10 15 -7 8 4 17 3 19 -2 9 -14 -130 -42 -174
-35 -22 4 -40 10 -40 15 0 5 4 9 8 9 5 0 17 8 28 18 36 33 94 53 94 32z
m-2430 -18 c0 -12 -39 -46 -45 -40 -6 5 27 48 38 48 4 0 7 -4 7 -8z m-108 -29
c-24 -34 -82 -90 -82 -79 0 7 90 106 97 106 2 0 -5 -12 -15 -27z m218 17 c0
-11 -39 -34 -46 -27 -6 6 25 37 37 37 5 0 9 -4 9 -10z m140 6 c0 -13 -41 -98
-46 -94 -9 10 20 98 33 98 7 0 13 -2 13 -4z m2324 -12 c3 -8 2 -12 -4 -9 -6 3
-10 10 -10 16 0 14 7 11 14 -7z m1486 6 c0 -12 -28 -25 -36 -17 -9 9 6 27 22
27 8 0 14 -5 14 -10z m-4873 -22 c-3 -8 -6 -5 -6 6 -1 11 2 17 5 13 3 -3 4
-12 1 -19z m602 -10 c0 -31 -1 -31 -10 -10 -5 13 -7 28 -3 33 10 16 14 9 13
-23z m-31 -47 c-5 -53 -31 -93 -42 -66 -3 8 0 15 6 15 7 0 8 13 5 37 -6 37 7
35 16 -2 3 -11 5 -1 6 23 0 23 4 42 7 42 4 0 4 -22 2 -49z m3182 31 c0 -15 -2
-15 -10 -2 -7 11 -10 11 -10 2 0 -7 -4 -10 -10 -7 -16 10 -11 21 10 22 13 1
20 -4 20 -15z m1118 -7 c-6 -14 -15 -25 -20 -25 -4 0 -8 11 -8 25 0 18 5 25
20 25 17 0 18 -3 8 -25z m142 13 c0 -7 -12 -26 -26 -43 -24 -29 -25 -29 -18
-5 3 14 13 30 21 36 11 10 11 13 1 17 -8 4 -7 6 5 6 9 1 17 -5 17 -11z m440
-10 c17 -19 20 -19 20 -4 0 9 5 14 10 11 25 -15 -16 -86 -57 -99 -14 -5 -18
-17 -20 -62 -1 -54 -1 -56 23 -50 31 8 30 4 -7 -50 -30 -44 -30 -46 -15 -79 9
-18 16 -43 16 -55 0 -25 23 -72 44 -89 24 -20 20 -28 -29 -47 -25 -9 -45 -20
-45 -24 0 -16 70 2 124 31 60 32 63 50 6 30 -33 -11 -37 -4 -20 30 10 17 13
18 38 5 16 -8 33 -10 42 -5 8 4 28 11 45 14 27 6 28 8 12 19 -12 10 -16 22
-12 47 l5 34 -12 -32 c-9 -29 -15 -33 -45 -33 -19 0 -33 3 -31 8 20 46 75 132
85 132 7 0 23 10 35 22 21 21 23 21 26 5 2 -10 -1 -23 -6 -30 -16 -19 -41 -97
-31 -97 5 0 16 11 25 25 17 26 37 25 27 -1 -5 -13 -1 -15 15 -10 12 4 23 2 28
-5 5 -9 10 -7 15 7 6 17 8 16 19 -11 10 -25 9 -32 -5 -40 -9 -5 -24 -16 -33
-23 -15 -11 -14 -12 5 -3 28 14 30 14 37 -4 8 -23 -24 -57 -41 -43 -7 6 -16 8
-19 6 -6 -7 -8 -38 -3 -57 7 -26 -29 -24 -36 1 -12 39 -36 58 -72 58 -18 0
-33 -5 -33 -11 0 -6 7 -9 15 -5 10 4 15 -1 15 -14 0 -10 5 -30 11 -43 9 -20 6
-30 -15 -62 -34 -50 -33 -65 2 -29 15 16 24 25 20 20 -5 -6 -8 -22 -8 -37 0
-32 28 -43 47 -19 11 13 12 11 13 -11 0 -14 -6 -31 -12 -38 -11 -11 -10 -13 5
-8 26 10 20 -1 -10 -17 -26 -14 -27 -15 -5 -16 24 0 31 -20 7 -20 -22 0 -18
-28 5 -35 32 -10 23 -22 -21 -29 -40 -6 -94 13 -112 41 -4 6 -25 14 -47 18
-22 4 -42 11 -45 15 -3 5 -26 12 -50 16 -25 3 -48 10 -51 15 -3 5 -13 9 -22 9
-9 0 -29 6 -44 14 -26 14 -27 14 -30 -17 -2 -18 -7 -32 -13 -31 -21 2 -354
200 -355 210 0 7 6 14 13 17 11 4 10 27 -3 123 -29 206 -30 229 -11 264 9 18
20 31 25 29 4 -2 14 11 22 30 21 50 37 27 20 -28 -9 -31 -21 -48 -42 -59 l-29
-16 40 -7 c22 -4 50 -5 63 -2 32 7 27 -4 -10 -27 -37 -22 -33 -26 9 -9 15 6
42 15 58 19 17 4 38 11 48 15 14 6 17 1 17 -33 0 -30 -6 -45 -23 -59 -52 -42
-108 -143 -78 -143 6 0 11 5 11 10 0 6 8 14 18 17 17 7 56 39 97 81 12 12 26
22 30 22 5 0 34 27 67 60 32 33 60 60 63 60 3 0 -4 -18 -15 -40 -13 -26 -21
-61 -21 -97 -1 -50 2 -59 31 -86 17 -16 34 -26 38 -22 7 7 8 17 10 147 2 75 2
76 32 87 34 11 36 18 14 49 -15 22 -15 24 5 29 11 3 19 9 16 13 -5 8 13 24 61
58 18 12 18 13 -1 9 -11 -3 -28 -8 -37 -12 -21 -8 -24 9 -8 49 12 32 14 32 40
4z m-1985 2 c3 -5 2 -10 -4 -10 -5 0 -13 5 -16 10 -3 6 -2 10 4 10 5 0 13 -4
16 -10z m2207 -16 c-2 -10 -12 -28 -23 -40 -10 -11 -19 -28 -19 -37 0 -23 -20
-22 -21 1 -2 31 3 46 24 73 24 31 44 32 39 3z m-354 -22 c3 -28 0 -33 -15 -30
-12 2 -19 14 -21 36 -3 28 0 33 15 30 12 -2 19 -14 21 -36z m-4423 18 c-3 -5
-11 -10 -16 -10 -6 0 -7 5 -4 10 3 6 11 10 16 10 6 0 7 -4 4 -10z m4670 -10
c3 -6 -1 -7 -9 -4 -18 7 -21 14 -7 14 6 0 13 -4 16 -10z m-4045 -9 c0 -5 -10
-11 -22 -14 -13 -2 -31 -8 -40 -12 -13 -5 -18 -3 -18 8 0 8 6 18 13 20 21 9
67 7 67 -2z m2030 -11 c0 -5 -4 -10 -10 -10 -5 0 -10 5 -10 10 0 6 5 10 10 10
6 0 10 -4 10 -10z m-4010 -51 c0 -21 -4 -39 -9 -39 -5 0 -9 20 -9 45 1 24 5
42 10 39 4 -3 8 -23 8 -45z m100 -2 c0 -6 -9 -2 -20 8 -11 10 -20 23 -20 28 0
6 9 2 20 -8 11 -10 20 -23 20 -28z m1785 24 c-3 -6 -14 -11 -23 -11 -13 0 -13
2 4 14 21 15 30 14 19 -3z m2169 3 c6 -15 4 -15 -11 -3 -10 7 -20 15 -22 16
-2 2 3 3 11 3 9 0 19 -7 22 -16z m1266 0 c0 -8 -5 -12 -10 -9 -6 4 -8 11 -5
16 9 14 15 11 15 -7z m158 -26 c-2 -36 -7 -44 -27 -50 -14 -4 -26 -6 -28 -4
-6 6 41 95 50 96 5 0 7 -19 5 -42z m-1385 8 c4 -10 1 -13 -9 -9 -7 3 -14 9
-14 14 0 14 17 10 23 -5z m1687 -16 c0 -6 -9 -10 -20 -10 -13 0 -20 7 -20 20
0 18 3 19 20 10 11 -6 20 -15 20 -20z m197 4 c7 -20 -23 -52 -37 -38 -13 13
-1 54 16 54 8 0 17 -7 21 -16z m-4870 -16 c-3 -8 -6 -5 -6 6 -1 11 2 17 5 13
3 -3 4 -12 1 -19z m3056 -8 c9 0 17 -5 17 -11 0 -6 7 -9 15 -5 9 3 15 0 15 -9
0 -8 -2 -15 -5 -15 -12 0 -95 56 -95 64 0 5 8 2 18 -7 10 -10 26 -17 35 -17z
m-4077 -22 c-2 -39 -26 -33 -26 7 0 31 3 35 14 26 7 -6 13 -21 12 -33z m890
18 c3 -14 1 -33 -5 -43 -10 -17 -10 -17 -11 2 -1 11 -3 30 -6 43 -5 30 14 28
22 -2z m4294 -34 c0 -26 6 -85 14 -132 23 -137 28 -190 17 -190 -5 0 -12 4
-15 8 -9 15 -47 352 -41 362 13 21 25 -3 25 -48z m-687 40 c-9 -6 -3 -13 18
-26 24 -14 28 -21 18 -32 -16 -20 17 -31 45 -15 18 10 17 9 -3 -9 -13 -11 -18
-20 -12 -20 12 0 71 -53 71 -64 0 -3 -9 -6 -21 -6 -11 0 -18 4 -15 9 3 5 -1
11 -9 15 -8 3 -15 1 -15 -4 0 -6 -9 -10 -20 -10 -18 0 -20 -5 -15 -42 2 -24 2
-35 -1 -25 -6 20 -24 23 -25 5 0 -10 -2 -10 -6 0 -2 6 -9 9 -15 6 -5 -3 -36 0
-69 7 -45 10 -59 17 -59 31 0 10 -3 17 -7 17 -20 -3 -34 2 -28 10 3 6 14 8 25
6 14 -3 25 5 35 25 14 27 18 28 40 18 35 -16 45 0 15 23 -14 10 -30 23 -35 27
-6 5 -17 11 -25 14 -9 3 9 14 40 26 56 21 97 29 73 14z m1604 -19 c7 -18 -29
-53 -55 -53 -12 0 -9 7 11 28 15 16 24 31 20 35 -3 4 -1 7 6 7 6 0 14 -7 18
-17z m-5237 -24 c0 -11 -4 -17 -10 -14 -5 3 -10 15 -10 26 0 11 5 17 10 14 6
-3 10 -15 10 -26z m4715 21 c-3 -5 -12 -10 -18 -10 -7 0 -6 4 3 10 19 12 23
12 15 0z m445 -20 c0 -5 -4 -10 -9 -10 -6 0 -13 5 -16 10 -3 6 1 10 9 10 9 0
16 -4 16 -10z m-1847 -12 c30 -15 45 -38 19 -31 -22 5 -70 42 -56 43 5 0 22
-6 37 -12z m1357 -12 c0 -8 -4 -18 -10 -21 -5 -3 -10 3 -10 14 0 12 5 21 10
21 6 0 10 -6 10 -14z m-3986 -34 c20 2 36 0 36 -5 0 -5 8 -3 17 4 9 8 14 9 10
2 -4 -6 -2 -13 5 -15 15 -5 -70 -84 -88 -82 -7 1 -27 -15 -46 -35 l-33 -36 38
34 c54 51 45 27 -14 -36 -33 -34 -48 -46 -44 -32 6 17 -3 11 -33 -19 -23 -23
-47 -42 -54 -42 -10 0 -10 -2 -1 -8 8 -5 9 -13 3 -22 -7 -12 -10 -11 -16 4 -5
14 0 26 19 42 15 13 27 27 27 32 0 5 10 21 21 36 34 43 16 39 -20 -4 -36 -44
-56 -45 -40 -2 l10 27 -23 -21 c-13 -12 -29 -20 -36 -18 -7 1 -8 0 -2 -3 12
-5 14 -23 3 -23 -5 1 -19 10 -32 21 l-24 20 32 47 33 47 -34 -38 c-43 -48 -68
-49 -68 -3 0 28 5 36 30 46 17 7 30 20 31 29 0 9 3 11 5 5 4 -9 125 24 140 39
3 3 12 3 20 0 8 -3 14 0 14 6 0 6 5 11 11 11 5 0 7 -5 3 -11 -4 -8 1 -9 17 -4
13 4 26 12 28 17 2 6 7 5 11 -2 5 -8 22 -11 44 -8z m240 8 c-6 -6 -28 -13 -50
-15 l-39 -5 40 14 c50 17 62 19 49 6z m924 -30 c-15 -24 -22 -19 -13 9 3 12
11 19 16 16 5 -4 3 -14 -3 -25z m-1067 -7 c-52 -68 -61 -86 -22 -44 l42 44 44
-22 c25 -12 45 -26 45 -31 0 -8 -30 -24 -42 -22 -3 1 -32 -26 -63 -59 -31 -34
-58 -59 -61 -57 -2 3 10 25 28 49 l31 44 -50 -45 c-28 -25 -51 -50 -52 -56 -2
-18 -38 -60 -46 -52 -8 8 40 105 69 138 11 13 14 19 5 12 -13 -10 -15 -8 -14
8 1 12 23 43 50 70 55 56 67 63 36 23z m2644 11 c36 -23 31 -39 -5 -17 -16 9
-30 21 -30 25 0 12 8 10 35 -8z m1608 -3 c6 -26 -8 -49 -17 -26 -9 24 -8 45 3
45 5 0 11 -9 14 -19z m-3901 -15 c-2 -5 2 -13 10 -17 9 -6 5 -8 -12 -7 -14 2
-28 7 -32 12 -4 6 -26 9 -50 9 -38 -1 -39 0 -13 6 40 10 101 8 97 -3z m2688 4
c0 -5 -5 -10 -11 -10 -5 0 -7 5 -4 10 3 6 8 10 11 10 2 0 4 -4 4 -10z m-3850
-20 c0 -5 -4 -10 -10 -10 -5 0 -10 5 -10 10 0 6 5 10 10 10 6 0 10 -4 10 -10z
m2743 -20 c37 -23 47 -36 48 -57 0 -16 1 -86 1 -156 l0 -129 -33 -34 c-37 -38
-50 -38 -25 1 20 30 10 33 -20 4 l-21 -20 0 28 c0 15 7 39 15 53 l16 25 -22
-19 c-19 -16 -22 -17 -22 -3 0 9 5 19 10 22 6 3 10 11 10 16 0 6 -4 8 -8 5 -8
-5 -22 160 -22 257 0 46 11 47 73 7z m2345 -45 c-26 -72 -27 -73 -38 -56 -10
18 15 92 37 108 9 7 18 12 19 10 2 -2 -6 -30 -18 -62z m-4025 48 c-7 -2 -19
-2 -25 0 -7 3 -2 5 12 5 14 0 19 -2 13 -5z m54 1 c-3 -3 -12 -4 -19 -1 -8 3
-5 6 6 6 11 1 17 -2 13 -5z m48 -14 c3 -5 -3 -10 -14 -10 -12 0 -21 5 -21 10
0 6 6 10 14 10 8 0 18 -4 21 -10z m-208 -9 c-17 -6 -17 -8 2 -30 l21 -24 -58
-43 c-74 -56 -91 -57 -58 -1 40 67 75 107 94 106 15 0 15 -1 -1 -8z m2836 -16
c1 -6 -11 -11 -28 -13 -29 -3 -29 -3 -10 12 21 16 35 17 38 1z m-2652 -16 c21
-18 21 -20 4 -14 -11 4 -30 10 -42 12 -13 3 -23 9 -23 14 0 17 38 9 61 -12z
m53 5 c8 -21 8 -21 -6 -27 -8 -3 -13 4 -13 19 0 27 10 32 19 8z m-854 -19 c0
-14 7 -28 15 -31 8 -4 15 -11 15 -17 0 -6 -11 0 -25 13 -25 23 -34 60 -15 60
6 0 10 -11 10 -25z m3685 15 c-3 -5 -12 -10 -18 -10 -7 0 -6 4 3 10 19 12 23
12 15 0z m-2960 -11 c12 -19 -5 -23 -22 -6 -16 16 -16 17 -1 17 9 0 20 -5 23
-11z m175 -4 c7 -8 8 -15 2 -15 -5 0 -15 7 -22 15 -7 8 -8 15 -2 15 5 0 15 -7
22 -15z m-906 -67 c8 -15 11 -28 7 -28 -4 0 -14 -11 -21 -25 -7 -13 -18 -22
-23 -18 -6 4 -7 1 -2 -7 4 -7 2 -16 -6 -21 -22 -14 -29 -11 -29 11 0 11 -4 20
-10 20 -5 0 -10 7 -10 15 0 18 4 18 33 5 l22 -11 -22 17 c-28 20 -20 49 9 33
11 -6 22 -8 25 -6 2 3 -5 10 -16 17 -20 10 -28 40 -14 53 9 10 40 -20 57 -55z
m834 30 c2 -12 -3 -18 -15 -18 -26 0 -47 16 -38 29 10 18 49 9 53 -11z m-333
-18 c-10 -11 -20 -18 -23 -15 -3 3 3 14 13 25 10 11 20 18 23 15 3 -3 -3 -14
-13 -25z m160 -24 c-10 -14 -21 -23 -26 -20 -5 3 -23 -9 -39 -26 -17 -18 -30
-27 -30 -22 0 6 11 22 25 36 14 14 25 30 25 36 0 6 7 13 15 16 8 4 15 13 15
22 0 15 1 15 16 0 15 -14 15 -18 -1 -42z m445 24 c25 -13 37 -25 34 -34 -3 -7
2 -16 12 -20 11 -4 15 -2 11 8 -4 11 2 14 29 11 38 -3 47 -8 50 -31 2 -9 -4
-14 -14 -12 -9 2 -18 9 -18 16 -3 25 -5 27 -13 13 -5 -8 -8 -23 -6 -33 2 -10
0 -18 -6 -18 -5 0 -9 5 -9 10 0 6 -7 10 -15 10 -8 0 -15 6 -16 13 0 10 -2 10
-6 0 -7 -20 -34 -15 -61 10 l-25 22 12 -22 c9 -18 9 -23 -2 -23 -7 0 -19 6
-26 13 -10 10 -11 9 -6 -4 4 -12 -2 -19 -22 -25 -15 -4 -32 -8 -38 -8 -5 -1
-13 -5 -17 -11 -4 -5 -8 2 -8 16 0 26 29 51 31 26 0 -7 5 -1 10 12 6 15 14 21
25 17 8 -3 12 -2 9 4 -3 6 -1 10 5 10 6 0 8 4 5 10 -6 10 14 39 28 40 4 0 25
-9 47 -20z m217 -17 c-3 -10 -5 -4 -5 12 0 17 2 24 5 18 2 -7 2 -21 0 -30z
m116 22 c-3 -9 -8 -14 -10 -11 -3 3 -2 9 2 15 9 16 15 13 8 -4z m1563 -147 c5
-95 8 -108 24 -108 21 0 30 -19 30 -61 0 -16 3 -29 8 -29 4 0 6 48 6 107 -1
60 1 92 3 73 3 -19 15 -44 29 -57 24 -22 33 -40 14 -28 -5 3 -10 2 -10 -2 0
-5 23 -19 50 -32 28 -13 50 -28 50 -32 0 -5 11 -9 24 -9 37 0 56 -26 56 -73 0
-23 5 -69 10 -102 9 -53 32 -339 34 -419 1 -23 -5 -31 -24 -37 -14 -4 -75 -23
-136 -43 -61 -20 -114 -36 -117 -36 -3 0 -5 10 -4 23 0 12 -7 40 -17 62 -15
36 -15 38 0 20 15 -19 16 -18 9 19 -3 22 -9 74 -11 115 -2 42 -13 186 -24 321
-10 135 -20 297 -20 360 -2 183 3 172 16 -32z m826 135 c29 -15 56 -26 61 -25
4 1 6 -4 5 -10 -2 -7 9 -14 23 -16 17 -2 29 -11 32 -24 3 -11 10 -18 14 -15
10 6 71 -21 92 -41 11 -11 9 -12 -15 -7 -47 11 -56 14 -50 23 3 5 -1 9 -9 9
-8 0 -15 -4 -15 -9 0 -14 -37 -9 -50 7 -7 8 -17 12 -22 9 -6 -4 -8 1 -4 12 5
16 0 19 -39 21 -25 1 -45 -2 -45 -7 0 -6 -26 -10 -57 -10 l-58 1 39 33 c30 26
37 37 31 54 -8 29 2 28 67 -5z m-3052 7 c12 -8 9 -10 -13 -10 -16 0 -26 4 -22
10 8 12 16 12 35 0z m-895 -56 c-9 -13 -13 -29 -10 -34 9 -14 -17 -12 -37 3
-23 18 -7 41 23 32 15 -4 19 -3 12 2 -10 7 -9 14 5 31 23 29 30 1 7 -34z m433
31 c-6 -14 -13 -23 -15 -21 -5 5 15 46 22 46 3 0 -1 -11 -7 -25z m682 15 c0
-5 -9 -10 -19 -10 -11 0 -28 -3 -38 -6 -16 -6 -16 -5 2 9 22 18 55 22 55 7z
m661 -4 c-12 -15 -61 -28 -61 -17 0 15 25 31 48 31 20 0 22 -3 13 -14z m-1577
-11 c11 -8 16 -15 12 -15 -5 0 -3 -7 5 -16 13 -16 12 -19 -33 -45 -14 -7 -16
-6 -12 6 4 8 10 15 14 15 10 0 8 20 -3 38 -5 7 -13 10 -18 6 -6 -4 -6 -11 1
-19 13 -16 -1 -28 -24 -19 -14 5 -13 10 7 34 26 34 26 34 51 15z m654 -20 c-3
-3 -9 2 -12 12 -6 14 -5 15 5 6 7 -7 10 -15 7 -18z m97 15 c-3 -5 2 -10 12
-10 15 0 16 -2 3 -10 -22 -14 -26 -12 -27 10 -1 11 3 20 8 20 6 0 7 -4 4 -10z
m75 0 c0 -5 -4 -10 -10 -10 -5 0 -10 5 -10 10 0 6 5 10 10 10 6 0 10 -4 10
-10z m1980 -19 c0 -9 5 -55 10 -104 6 -48 11 -100 11 -115 1 -15 8 -101 15
-192 7 -91 16 -208 19 -260 12 -207 15 -223 47 -250 21 -18 31 -35 31 -58 1
-22 6 -31 15 -27 7 3 11 1 7 -4 -3 -5 22 -20 56 -33 33 -12 69 -31 79 -40 10
-9 30 -20 44 -24 21 -5 47 -24 34 -24 -15 0 -114 42 -116 49 -2 6 -10 7 -19 4
-10 -4 -14 -2 -10 4 5 8 -67 41 -185 85 -35 13 -27 40 11 33 24 -5 24 -5 4 4
-12 6 -34 7 -50 2 -20 -5 -40 -1 -73 15 -30 15 -38 23 -25 24 16 0 17 2 5 10
-9 5 -19 5 -26 -1 -11 -9 -64 4 -64 16 0 2 12 0 26 -5 31 -12 34 -12 34 -2 0
11 -70 30 -76 21 -3 -5 -13 -9 -22 -8 -14 0 -13 2 3 9 l20 8 -20 7 c-11 4 -36
13 -55 20 -19 8 -59 21 -87 30 -29 9 -55 21 -59 26 -3 5 -9 7 -14 4 -16 -10
-88 26 -93 46 -5 17 -11 19 -41 14 -31 -6 -37 -4 -45 16 -6 16 -10 18 -10 8
-1 -15 -4 -15 -46 0 -29 10 -45 22 -45 33 0 19 -17 33 -22 18 -2 -6 -16 -8
-35 -4 -18 4 -30 10 -27 15 3 5 -2 6 -10 3 -9 -3 -17 3 -21 17 -6 16 -1 27 21
45 42 33 162 94 188 94 20 0 21 -4 18 -79 -3 -78 14 -141 37 -141 5 0 17 -3
26 -6 15 -6 16 6 13 120 -3 139 -8 129 64 128 20 0 48 -8 62 -17 14 -9 30 -14
36 -10 5 3 10 2 10 -3 0 -5 26 -20 58 -32 31 -13 66 -31 77 -40 11 -10 34 -26
50 -36 l30 -18 -20 24 c-21 25 -22 25 52 -5 38 -15 42 -20 41 -48 -2 -58 14
-197 23 -203 14 -8 11 -26 -3 -19 -7 4 -3 -3 10 -14 12 -11 21 -25 20 -31 -2
-7 7 -16 20 -21 17 -6 22 -5 22 6 0 8 -7 15 -15 15 -8 0 -15 7 -15 16 0 9 5
12 12 8 12 -7 10 32 -12 351 -5 77 -14 206 -20 286 -15 214 -14 270 5 263 8
-4 15 -14 15 -23z m47 -28 c-3 -10 -5 -2 -5 17 0 19 2 27 5 18 2 -10 2 -26 0
-35z m-153 25 c3 -7 7 -44 9 -83 l6 -70 -23 45 c-12 25 -20 51 -17 59 2 8 0
12 -5 9 -5 -4 -10 7 -11 23 -2 23 2 29 18 29 11 0 21 -6 23 -12z m-2282 -20
c-7 -7 -12 -8 -12 -2 0 14 12 26 19 19 2 -3 -1 -11 -7 -17z m208 3 c0 -5 -7
-12 -16 -15 -21 -8 -24 -8 -24 5 0 5 5 7 10 4 6 -3 10 -1 10 4 0 6 5 11 10 11
6 0 10 -4 10 -9z m-899 -34 c-13 -13 -26 -3 -16 12 3 6 11 8 17 5 6 -4 6 -10
-1 -17z m210 9 c-1 -16 -31 -15 -31 1 0 8 7 13 16 11 8 -2 15 -7 15 -12z
m1274 4 c3 -5 1 -10 -4 -10 -6 0 -11 5 -11 10 0 6 2 10 4 10 3 0 8 -4 11 -10z
m-1380 -10 c3 -5 1 -10 -4 -10 -6 0 -11 5 -11 10 0 6 2 10 4 10 3 0 8 -4 11
-10z m1022 -12 c-3 -8 -6 -5 -6 6 -1 11 2 17 5 13 3 -3 4 -12 1 -19z m598 -49
c-34 -59 -63 -99 -54 -73 8 20 83 143 86 140 2 -2 -13 -32 -32 -67z m-1380 51
c3 -5 1 -10 -4 -10 -6 0 -11 5 -11 10 0 6 2 10 4 10 3 0 8 -4 11 -10z m992 4
c-3 -3 -12 -4 -19 -1 -8 3 -5 6 6 6 11 1 17 -2 13 -5z m-122 -14 c-3 -5 -12
-10 -20 -10 -16 0 -26 -25 -19 -45 4 -9 0 -15 -10 -15 -26 0 -21 55 7 68 28
14 50 15 42 2z m65 -25 c0 -19 -5 -35 -11 -35 -7 0 -9 10 -5 25 4 14 2 25 -4
25 -5 0 -10 5 -10 10 0 6 7 10 15 10 10 0 15 -11 15 -35z m170 16 c0 -11 3
-28 6 -38 3 -10 -2 -7 -10 7 -18 29 -20 50 -6 50 6 0 10 -9 10 -19z m-1403 -6
c8 -22 -6 -33 -17 -15 -13 20 -12 30 0 30 6 0 13 -7 17 -15z m1311 -4 c-7 -11
-21 -22 -31 -25 -18 -4 -19 -6 -3 -22 9 -9 14 -19 11 -22 -3 -4 -10 0 -15 8
-8 13 -10 13 -10 1 0 -23 -11 -5 -16 27 -4 26 -1 30 28 39 47 16 49 15 36 -6z
m151 -38 c14 -73 13 -101 -3 -43 -24 86 -26 100 -18 100 5 0 14 -26 21 -57z
m-1389 26 c0 -5 -7 -9 -15 -9 -9 0 -12 6 -9 15 6 15 24 11 24 -6z m1120 11 c0
-5 -6 -10 -12 -10 -9 0 -8 -3 2 -10 17 -10 14 -15 -17 -24 -28 -9 -31 9 -6 36
18 20 33 24 33 8z m170 -16 c0 -8 -4 -12 -10 -9 -5 3 -10 13 -10 21 0 8 5 12
10 9 6 -3 10 -13 10 -21z m-1150 0 c0 -11 -5 -14 -16 -10 -9 3 -18 6 -20 6 -3
0 -2 5 1 10 10 16 35 12 35 -6z m1120 12 c0 -3 -4 -8 -10 -11 -5 -3 -10 -1
-10 4 0 6 5 11 10 11 6 0 10 -2 10 -4z m-1045 -16 c-3 -5 -10 -10 -16 -10 -5
0 -9 5 -9 10 0 6 7 10 16 10 8 0 12 -4 9 -10z m1025 -31 c0 -6 -4 -7 -10 -4
-5 3 -10 11 -10 16 0 6 5 7 10 4 6 -3 10 -11 10 -16z m-80 -9 c0 -5 -2 -10 -4
-10 -3 0 -8 5 -11 10 -3 6 -1 10 4 10 6 0 11 -4 11 -10z m-1330 -25 c-30 -17
-80 -20 -80 -4 0 6 10 9 23 6 12 -3 31 -1 42 3 32 14 42 10 15 -5z m1270 -5
c0 -5 -7 -10 -15 -10 -8 0 -15 5 -15 10 0 6 7 10 15 10 8 0 15 -4 15 -10z
m783 -6 c21 -8 10 -38 -24 -68 l-29 -26 -1 22 c-2 22 -2 22 -6 -1 -3 -13 -10
-30 -16 -37 -7 -8 -25 -31 -42 -53 -16 -22 -36 -40 -42 -41 -7 0 -13 -6 -13
-13 0 -7 -16 -28 -35 -47 -49 -47 -44 -29 14 49 26 36 65 95 85 131 l38 65
-31 -29 c-17 -17 -31 -25 -31 -19 0 6 16 25 35 42 34 30 66 38 98 25z m653
-39 c-3 -8 -12 -15 -21 -15 -14 0 -13 3 2 26 17 26 30 18 19 -11z m-2596 5
c-6 -11 -15 -20 -20 -20 -6 0 -11 -8 -11 -17 -1 -17 -2 -17 -6 -1 -6 23 14 58
33 58 12 0 12 -4 4 -20z m1275 10 c-3 -5 -11 -10 -16 -10 -6 0 -7 5 -4 10 3 6
11 10 16 10 6 0 7 -4 4 -10z m485 -67 c-59 -65 -65 -71 -55 -53 16 29 88 111
93 106 3 -3 -14 -27 -38 -53z m192 0 c-11 -21 -25 -58 -32 -83 -13 -50 -28
-73 -41 -64 -21 12 0 81 42 142 46 67 63 70 31 5z m-685 25 c-3 -8 -6 -5 -6 6
-1 11 2 17 5 13 3 -3 4 -12 1 -19z m1617 7 c-7 -17 -7 -17 -29 -9 -13 5 -14 8
-3 15 21 14 38 10 32 -6z m-2221 -12 c-7 -2 -19 -2 -25 0 -7 3 -2 5 12 5 14 0
19 -2 13 -5z m2167 1 c0 -3 -13 -10 -30 -15 -16 -6 -27 -15 -24 -20 3 -5 -3
-6 -13 -2 -14 5 -10 10 22 25 46 20 45 20 45 12z m-270 -14 c0 -5 -9 -14 -21
-20 -19 -11 -20 -10 -9 9 11 22 30 29 30 11z m2540 -15 c0 -8 -4 -15 -10 -15
-5 0 -7 7 -4 15 4 8 8 15 10 15 2 0 4 -7 4 -15z m-2193 -27 c-3 -7 -5 -2 -5
12 0 14 2 19 5 13 2 -7 2 -19 0 -25z m618 20 c4 -11 19 -159 51 -500 6 -57 10
-67 31 -77 13 -6 27 -11 30 -11 7 0 1 77 -27 343 -12 114 -19 211 -16 214 14
15 28 -19 36 -88 5 -41 16 -148 25 -239 24 -255 23 -246 50 -258 24 -11 25
-10 25 18 0 16 -7 96 -15 177 -22 223 -33 348 -31 350 1 1 7 -1 13 -5 7 -5 19
-71 28 -162 9 -85 23 -210 30 -278 7 -68 14 -124 16 -126 2 -2 15 -7 27 -11
27 -8 27 -31 -3 235 -8 69 -19 163 -24 210 -5 47 -6 89 -2 93 11 11 28 -13 33
-43 2 -17 14 -30 35 -40 18 -8 34 -19 36 -25 3 -5 -8 -36 -23 -67 -26 -53 -22
-73 8 -38 7 8 11 11 10 5 -2 -5 0 -11 5 -12 17 -6 26 -2 30 15 3 10 5 5 6 -12
1 -26 -1 -28 -29 -24 -16 3 -30 0 -30 -5 0 -14 35 -43 68 -56 26 -11 29 -19
40 -92 6 -43 9 -85 6 -92 -3 -8 13 -21 38 -34 38 -18 40 -21 16 -19 -15 0 -30
7 -33 14 -2 6 -8 12 -13 12 -8 0 0 -86 9 -94 19 -15 418 -170 424 -164 3 2 0
33 -5 68 -9 64 -35 282 -64 550 -9 74 -18 156 -22 181 -6 41 -4 47 14 51 21 6
33 -9 31 -40 0 -14 -2 -13 -9 3 -8 18 -9 17 -9 -7 -2 -51 31 -273 41 -279 7
-4 7 -13 0 -25 -7 -13 -6 -42 4 -94 8 -41 12 -88 9 -105 -3 -21 -3 -24 3 -11
8 18 9 18 15 2 11 -27 8 -48 -4 -40 -8 5 -10 0 -6 -17 3 -13 9 -42 13 -64 6
-33 8 -37 16 -20 7 16 7 16 3 -5 -18 -85 -14 -161 9 -159 5 0 12 -3 15 -8 5
-8 163 -73 168 -69 1 0 -2 21 -7 46 -5 25 -7 47 -4 49 5 5 11 -15 19 -62 5
-29 12 -40 32 -48 14 -5 28 -8 30 -6 2 2 -12 98 -31 213 -42 254 -59 392 -53
424 4 22 4 21 6 -6 1 -26 8 -35 45 -55 36 -19 46 -30 54 -63 l9 -41 -2 51 -2
51 28 -10 c16 -6 24 -14 18 -18 -7 -4 -5 -8 5 -12 8 -3 17 -1 20 6 2 7 5 4 5
-5 1 -10 7 -18 15 -18 8 0 16 -7 19 -15 4 -8 24 -26 47 -40 32 -20 40 -31 40
-55 0 -17 6 -33 14 -36 8 -3 17 -24 21 -47 60 -400 77 -489 97 -495 22 -5 23
-13 2 -38 -15 -19 -16 -19 -10 1 5 17 4 18 -6 5 -14 -16 -52 -24 -42 -9 3 6
-6 8 -20 5 -14 -3 -26 -2 -26 2 0 9 -49 32 -67 32 -7 0 -13 5 -13 10 0 6 -11
10 -24 10 -29 0 -42 15 -21 24 21 8 8 35 -15 29 -10 -3 -21 0 -24 6 -16 25
-36 11 -36 -26 0 -71 -4 -71 -156 -20 -76 25 -139 45 -140 44 -1 -1 1 -20 5
-42 5 -30 8 -36 14 -22 4 11 4 24 1 30 -5 8 -4 9 4 2 12 -12 21 -115 10 -115
-5 0 -9 15 -9 33 -1 18 -3 24 -6 13 -5 -19 14 -188 47 -426 11 -74 26 -187 34
-250 9 -63 25 -182 36 -265 11 -82 19 -157 19 -165 -2 -31 -39 168 -45 240 -3
41 -11 83 -16 94 -6 10 -11 51 -13 90 -2 39 -8 87 -14 106 -6 19 -14 71 -16
114 -3 43 -8 82 -10 87 -3 4 -12 65 -20 136 -8 70 -19 160 -24 198 -5 39 -11
88 -13 110 l-3 40 -95 34 c-148 52 -723 259 -741 266 -13 5 -17 27 -22 107 -3
63 -10 104 -17 108 -8 5 -18 62 -26 151 -7 79 -18 191 -24 249 -13 132 -13
180 0 180 6 0 13 -6 15 -12z m-3584 -25 c-8 -15 -10 -15 -11 -2 0 17 10 32 18
25 2 -3 -1 -13 -7 -23z m878 13 c40 -4 88 -30 116 -64 31 -39 28 -37 -42 18
-49 38 -70 34 -28 -4 16 -15 24 -26 19 -26 -5 0 -31 21 -59 46 -27 25 -44 42
-36 38 7 -4 21 -7 30 -8z m1492 -23 c-10 -17 -10 -16 -11 3 0 23 13 41 18 25
2 -6 -1 -18 -7 -28z m-2530 -19 c-14 -41 -16 -43 -19 -19 -3 21 20 65 33 65 2
0 -5 -21 -14 -46z m989 31 c7 -8 8 -15 2 -15 -5 0 -15 7 -22 15 -7 8 -8 15 -2
15 5 0 15 -7 22 -15z m1610 -22 c-11 -17 -11 -17 -6 0 3 10 6 24 7 30 0 9 2 9
5 0 3 -7 0 -20 -6 -30z m-1665 17 c3 -5 1 -10 -4 -10 -6 0 -11 5 -11 10 0 6 2
10 4 10 3 0 8 -4 11 -10z m2005 5 c0 -2 -10 -9 -22 -15 -22 -11 -22 -10 -4 4
21 17 26 19 26 11z m-2379 -22 c13 -15 12 -15 -8 -4 -24 12 -29 21 -14 21 5 0
15 -7 22 -17z m56 11 c-3 -3 -12 -4 -19 -1 -8 3 -5 6 6 6 11 1 17 -2 13 -5z
m1543 -31 c-11 -17 -11 -17 -6 0 3 10 6 24 7 30 0 9 2 9 5 0 3 -7 0 -20 -6
-30z m-1939 -14 c-6 -24 -9 -28 -10 -12 -1 24 9 56 16 50 2 -3 0 -20 -6 -38z
m2916 4 c-3 -10 -5 -4 -5 12 0 17 2 24 5 18 2 -7 2 -21 0 -30z m-2167 17 c0
-5 -2 -10 -4 -10 -3 0 -8 5 -11 10 -3 6 -1 10 4 10 6 0 11 -4 11 -10z m1780 6
c0 -2 -8 -10 -17 -17 -16 -13 -17 -12 -4 4 13 16 21 21 21 13z m60 -26 c-19
-17 -39 -30 -45 -30 -5 0 6 14 25 30 19 16 40 29 45 29 6 0 -6 -13 -25 -29z
m-2748 -12 c-8 -8 -9 -4 -5 13 4 13 8 18 11 10 2 -7 -1 -18 -6 -23z m644 3
c-4 -6 -12 -11 -18 -11 -7 0 -7 4 1 13 6 8 9 16 7 19 -1 3 1 2 7 -2 5 -5 6
-13 3 -19z m349 -9 c-6 -7 -35 18 -35 31 0 5 9 2 20 -8 11 -10 18 -20 15 -23z
m145 13 c13 -14 21 -25 18 -25 -2 0 -15 11 -28 25 -13 14 -21 25 -18 25 2 0
15 -11 28 -25z m-613 9 c-3 -3 -12 -4 -19 -1 -8 3 -5 6 6 6 11 1 17 -2 13 -5z
m-277 -8 c0 -2 -8 -10 -17 -17 -16 -13 -17 -12 -4 4 13 16 21 21 21 13z m204
-14 c6 -4 36 -14 66 -22 30 -8 54 -19 53 -25 -1 -5 3 -15 8 -21 6 -7 4 -15 -4
-23 -11 -8 -18 -6 -33 11 -10 12 -14 19 -8 15 6 -3 11 -1 11 6 0 18 -44 15
-44 -3 0 -20 27 -51 39 -44 6 4 5 -4 -2 -16 -7 -12 -7 -20 -2 -16 14 9 82 -88
72 -104 -5 -8 -20 5 -49 43 -55 76 -65 78 -35 10 20 -47 21 -54 6 -38 -10 11
-33 34 -52 50 l-34 30 18 -28 c27 -43 14 -41 -23 3 -31 38 -36 40 -90 40 -31
0 -62 5 -69 12 -7 7 -12 30 -12 53 0 36 4 42 38 63 30 18 46 21 86 16 28 -3
55 -8 60 -12z m1564 -14 c-13 -39 -98 -157 -98 -136 0 15 34 70 46 75 8 3 14
10 14 15 0 17 32 78 41 78 4 0 3 -15 -3 -32z m3202 24 c0 -8 -33 -27 -52 -31
-18 -3 -9 15 13 26 28 15 39 16 39 5z m-5380 -47 c-9 -11 -9 -15 -1 -15 6 0
11 -4 11 -10 0 -18 -17 -10 -28 14 -8 19 -7 27 6 40 15 15 17 15 20 1 2 -9 -2
-22 -8 -30z m751 22 c-13 -13 -26 -3 -16 12 3 6 11 8 17 5 6 -4 6 -10 -1 -17z
m153 -8 c-3 -5 -10 -7 -15 -3 -5 3 -7 10 -3 15 3 5 10 7 15 3 5 -3 7 -10 3
-15z m1019 6 c-3 -9 -8 -14 -10 -11 -3 3 -2 9 2 15 9 16 15 13 8 -4z m327 -71
c-5 -43 -11 -95 -13 -114 -2 -19 -5 3 -7 50 -1 57 -5 75 -9 55 -6 -28 -7 -29
-13 -7 -3 12 -1 28 6 35 6 6 17 25 24 41 20 44 23 27 12 -60z m-2103 54 c-3
-8 -6 -5 -6 6 -1 11 2 17 5 13 3 -3 4 -12 1 -19z m5013 0 c0 -13 -23 -5 -28
10 -2 7 2 10 12 6 9 -3 16 -11 16 -16z m-4270 -13 c0 -2 -6 -5 -13 -8 -8 -3
-14 1 -14 8 0 7 6 11 14 8 7 -3 13 -6 13 -8z m425 5 c3 -6 -1 -7 -9 -4 -18 7
-21 14 -7 14 6 0 13 -4 16 -10z m4125 -21 c-13 -22 -28 -24 -54 -4 -17 13 -16
14 15 23 42 11 52 6 39 -19z m-5233 -1 c-3 -8 -6 -5 -6 6 -1 11 2 17 5 13 3
-3 4 -12 1 -19z m757 4 c5 -3 1 -9 -8 -14 -10 -6 -20 -7 -23 -4 -4 3 0 6 7 6
9 0 7 5 -6 15 -19 15 -19 15 1 8 11 -3 24 -8 29 -11z m1473 -4 c-3 -8 -6 -5
-6 6 -1 11 2 17 5 13 3 -3 4 -12 1 -19z m-1380 -2 c0 -8 -6 -12 -15 -9 -11 5
-11 7 0 14 7 5 13 9 14 9 0 0 1 -6 1 -14z m-677 -12 c0 -8 -4 -12 -10 -9 -5 3
-10 10 -10 16 0 5 5 9 10 9 6 0 10 -7 10 -16z m482 1 c39 -13 220 -67 420
-125 43 -13 82 -28 88 -35 13 -16 49 -125 41 -125 -6 0 -39 47 -59 85 -8 14
-11 15 -12 5 0 -8 9 -30 20 -48 27 -43 26 -46 -15 -39 -30 5 -35 3 -33 -11 3
-16 -7 -18 -59 -13 -6 0 -20 15 -30 31 -20 34 -34 40 -26 10 3 -11 0 -20 -6
-20 -6 0 -11 5 -11 10 0 6 -5 10 -11 10 -5 0 -7 -6 -3 -12 4 -7 -3 -4 -16 7
-13 11 -20 14 -15 6 6 -11 4 -13 -11 -7 -10 5 -28 11 -39 13 -11 3 -32 17 -47
31 -16 14 -28 22 -28 16 0 -5 -14 12 -30 39 -29 46 -51 66 -30 28 31 -60 -25
-9 -81 72 -23 32 -43 56 -46 53 -9 -9 54 -111 67 -108 6 1 10 -3 8 -10 -1 -7
4 -24 11 -38 16 -30 5 -19 -33 33 -15 21 -30 36 -33 33 -3 -3 6 -19 21 -36 26
-31 33 -50 19 -50 -7 0 -20 17 -68 95 l-19 30 22 -19 c33 -28 27 -2 -9 39 -31
34 -31 36 -13 50 23 18 16 18 66 0z m3825 -17 c-3 -7 -5 -2 -5 12 0 14 2 19 5
13 2 -7 2 -19 0 -25z m-2087 -23 c-7 -9 -15 -13 -18 -10 -3 2 1 11 8 20 7 9
15 13 18 10 3 -2 -1 -11 -8 -20z m-2277 -7 c6 -22 -14 -48 -21 -28 -2 6 -13
10 -25 10 -21 0 -21 1 3 20 32 25 36 25 43 -2z m453 7 c-3 -8 0 -14 6 -12 7 1
13 -10 13 -24 1 -14 11 -42 23 -62 12 -20 18 -37 14 -37 -4 0 -19 20 -34 45
-15 25 -33 44 -39 43 -6 -2 -18 8 -27 22 -9 13 -12 21 -6 17 7 -4 14 0 18 8 3
8 13 15 22 15 10 0 14 -5 10 -15z m341 9 c-3 -3 -12 -4 -19 -1 -8 3 -5 6 6 6
11 1 17 -2 13 -5z m189 -61 c-3 -4 -6 0 -6 8 0 12 -2 12 -9 0 -6 -9 -16 -11
-32 -5 -24 7 -24 7 6 20 25 10 31 10 38 -3 5 -8 6 -17 3 -20z m1235 14 c-10
-9 -11 -8 -5 6 3 10 9 15 12 12 3 -3 0 -11 -7 -18z m2156 -9 c-3 -7 -5 -2 -5
12 0 14 2 19 5 13 2 -7 2 -19 0 -25z m-4125 5 c29 -35 30 -42 2 -37 -25 5 -26
3 -13 -13 9 -13 6 -12 -11 3 -14 12 -35 27 -48 33 -12 7 -20 16 -17 22 10 16
71 10 87 -8z m4360 -35 c2 -20 0 -34 -4 -32 -4 3 -8 24 -7 47 1 47 6 41 11
-15z m-3519 -9 c4 -13 1 -19 -6 -16 -7 3 -11 10 -9 16 1 6 -3 11 -10 11 -6 0
-8 3 -5 7 4 3 1 13 -5 22 -9 11 -6 10 9 -2 11 -10 23 -27 26 -38z m-73 37 c0
-2 -7 -9 -15 -16 -13 -11 -14 -10 -9 4 5 14 24 23 24 12z m122 -40 c3 -31 2
-33 -14 -25 -21 11 -23 30 -6 47 16 16 15 17 20 -22z m-112 14 c0 -5 -5 -10
-11 -10 -5 0 -7 5 -4 10 3 6 8 10 11 10 2 0 4 -4 4 -10z m3524 -89 c4 -42 9
-89 13 -106 3 -16 2 -27 -1 -24 -6 6 -36 187 -36 218 0 13 2 13 9 2 5 -8 12
-48 15 -90z m-5295 80 c2 -1 -4 -10 -13 -20 -17 -19 -17 -19 3 -14 16 4 23 -2
32 -23 7 -16 23 -53 36 -83 26 -57 40 -148 25 -169 -7 -10 -19 -11 -53 -3 -24
6 -61 11 -82 11 l-39 0 7 78 c10 115 14 125 36 77 22 -50 23 -31 4 60 -22 102
-23 100 44 86z m-178 -28 c-8 -30 -31 -44 -31 -19 0 9 5 16 10 16 6 0 10 7 10
15 0 8 4 15 9 15 5 0 6 -12 2 -27z m4863 -47 c2 -25 0 -46 -5 -46 -5 0 -9 7
-9 15 0 8 -7 15 -15 15 -8 0 -15 5 -15 10 0 6 7 10 15 10 10 0 15 10 15 27 0
42 10 20 14 -31z m-2799 -2 c0 -10 3 -24 8 -31 4 -6 3 -14 -3 -18 -5 -3 -12 7
-16 22 -3 15 -8 34 -10 41 -2 8 2 12 8 9 7 -2 13 -12 13 -23z m-26 -39 c0 -5
-6 -1 -14 9 -8 11 -15 24 -15 30 0 5 7 1 15 -10 8 -10 14 -23 14 -29z m2938
23 c-3 -8 -6 -5 -6 6 -1 11 2 17 5 13 3 -3 4 -12 1 -19z m-1927 2 c8 -5 11
-10 5 -10 -5 0 2 -8 15 -17 14 -10 29 -17 33 -15 5 1 6 -2 2 -8 -4 -6 -1 -18
7 -28 12 -15 10 -15 -14 1 -16 10 -28 13 -28 7 0 -15 -37 12 -57 40 -13 19
-13 24 -2 31 18 11 21 11 39 -1z m1915 -20 c13 -6 15 -9 5 -9 -8 0 -22 4 -30
9 -18 12 -2 12 25 0z m352 -37 c-3 -10 -5 -2 -5 17 0 19 2 27 5 18 2 -10 2
-26 0 -35z m-2319 15 c8 -10 4 -13 -13 -14 -19 -2 -21 1 -12 12 15 16 13 16
25 2z m-2523 -29 c5 -6 5 -9 -1 -9 -6 0 -9 -13 -8 -29 1 -20 -6 -37 -22 -52
-13 -12 -24 -21 -25 -18 0 2 -1 19 -2 37 -2 27 1 32 16 28 9 -2 15 0 11 5 -3
5 -11 9 -18 9 -9 0 -12 9 -8 25 4 21 9 24 26 19 11 -3 25 -10 31 -15z m1529
-25 c3 -8 2 -12 -4 -9 -6 3 -10 2 -10 -4 0 -15 -31 -6 -42 12 -7 14 -4 17 20
17 18 0 32 -6 36 -16z m3323 -26 c-3 -7 -5 -2 -5 12 0 14 2 19 5 13 2 -7 2
-19 0 -25z m-4657 2 c13 -8 13 -10 -2 -10 -9 0 -20 5 -23 10 -8 13 5 13 25 0z
m-39 -10 c22 -5 58 -15 82 -20 23 -6 84 -27 135 -47 131 -52 95 -61 -85 -22
-76 17 -174 34 -217 37 l-79 7 24 27 c27 31 70 36 140 18z m2290 -25 c11 4 26
1 34 -5 8 -7 22 -9 31 -6 8 3 22 0 29 -8 12 -12 12 -15 -1 -20 -8 -3 -12 -11
-9 -16 4 -7 -2 -9 -17 -6 -85 18 -128 29 -128 33 0 2 8 15 18 28 12 17 18 19
20 9 2 -10 10 -13 23 -9z m2076 -52 c-3 -10 -5 -2 -5 17 0 19 2 27 5 18 2 -10
2 -26 0 -35z m500 15 c-3 -7 -5 -2 -5 12 0 14 2 19 5 13 2 -7 2 -19 0 -25z
m-5004 -15 c-7 -2 -21 -2 -30 0 -10 3 -4 5 12 5 17 0 24 -2 18 -5z m172 -3
l30 -8 -30 0 c-16 0 -41 4 -55 8 l-25 8 25 0 c14 0 39 -4 55 -8z m84 -35 c73
-8 136 -17 139 -20 7 -7 -2 -7 -188 10 -191 17 -233 18 -226 6 3 -4 56 -11
118 -15 232 -15 348 -26 348 -36 0 -4 -29 -8 -65 -8 -36 -1 -77 -8 -94 -17
-17 -8 -43 -14 -58 -14 l-28 1 30 8 30 8 -30 1 c-34 1 -265 -36 -273 -44 -8
-8 30 -6 89 5 33 6 77 7 110 2 l54 -8 -55 -11 c-90 -18 -194 -47 -183 -50 6
-2 48 5 93 16 51 12 90 17 104 12 12 -5 33 -3 51 5 17 7 39 13 50 13 25 -1
-38 -30 -72 -33 -12 -2 -28 -8 -36 -14 -7 -6 -30 -18 -49 -27 -28 -11 -38 -12
-41 -2 -4 7 -6 6 -6 -4 -1 -10 -25 -27 -58 -42 -61 -28 -58 -38 4 -12 48 20
53 19 53 -13 0 -22 -7 -32 -27 -42 -17 -7 -23 -14 -15 -17 7 -3 19 1 28 7 8 7
17 10 20 7 6 -5 -6 -17 -75 -75 -25 -21 8 -3 45 25 17 12 34 20 37 16 4 -3 7
-1 7 5 0 7 19 24 42 39 53 35 94 73 91 84 -2 5 0 8 5 8 19 -3 33 2 27 10 -3 5
0 13 6 17 8 4 9 3 5 -4 -4 -7 -3 -12 2 -12 12 0 58 50 46 50 -5 1 2 7 16 15
15 9 19 15 10 15 -8 1 -1 7 15 16 l30 14 -31 -4 c-18 -3 -45 -8 -60 -12 -22
-5 -26 -4 -18 5 6 7 38 15 70 18 57 6 164 46 147 55 -4 3 -2 3 5 1 7 -1 44 3
82 9 130 22 349 -23 498 -104 98 -53 234 -150 222 -158 -8 -5 -3 -10 12 -14
33 -9 76 -46 60 -53 -16 -6 -16 -24 1 -22 29 4 39 -2 33 -17 -5 -14 -4 -15 9
-4 13 11 20 8 47 -18 37 -39 24 -41 -63 -8 -69 25 -153 40 -143 25 3 -5 17 -9
32 -10 15 0 43 -7 62 -14 32 -12 33 -14 10 -15 -24 -2 -24 -2 5 -11 17 -5 37
-8 46 -5 11 2 16 -2 14 -13 -1 -9 -11 -16 -22 -15 -12 0 -20 -6 -19 -15 1 -9
-11 -18 -29 -22 -16 -4 -24 -7 -17 -8 6 0 12 -5 12 -10 0 -5 -9 -7 -20 -4 -22
6 -25 -15 -5 -29 6 -4 -8 -8 -30 -9 l-40 -1 35 -10 35 -11 -32 -9 c-25 -6 -33
-14 -33 -32 0 -13 -3 -39 -7 -57 l-7 -34 -13 45 -13 45 6 -40 c3 -22 7 -47 10
-56 2 -9 -7 -31 -22 -48 -14 -17 -23 -31 -19 -31 7 0 -43 -69 -66 -90 -13 -12
-15 -20 -7 -33 5 -10 13 -15 17 -12 13 8 -16 -103 -31 -117 -7 -8 -51 -26 -98
-42 -47 -16 -103 -38 -125 -50 -116 -62 -225 -72 -225 -21 0 30 -32 49 -67 40
-23 -5 -24 -10 -21 -57 3 -51 3 -52 -30 -59 -45 -9 -54 -20 -11 -14 31 5 31 4
7 -4 -20 -7 -44 -4 -88 10 -60 18 -61 18 -81 -2 -13 -13 -27 -18 -42 -14 -17
5 -19 4 -7 -4 13 -9 13 -10 0 -14 -8 -2 -31 -9 -51 -16 -19 -6 -43 -11 -52
-11 -9 0 -17 -4 -17 -10 0 -5 -7 -10 -16 -10 -8 0 -12 -5 -9 -10 7 -11 -16
-70 -27 -70 -3 0 -15 10 -25 23 -10 12 -25 21 -33 20 -12 -3 -15 9 -13 64 2
63 5 70 37 100 19 17 32 34 28 37 -3 3 7 6 21 6 20 0 27 5 27 20 0 11 7 23 15
26 8 4 15 10 15 16 0 5 -4 6 -10 3 -7 -4 -7 3 0 20 9 24 6 31 -24 61 -24 24
-43 34 -65 34 -34 0 -54 -26 -31 -40 18 -11 22 -70 5 -76 -7 -3 -39 7 -72 22
-32 16 -62 27 -66 26 -32 -10 -41 94 -20 248 5 36 5 112 1 170 -3 58 -7 187
-7 288 l0 184 52 23 c60 27 59 32 -3 10 l-43 -15 6 67 c4 38 7 80 7 96 l0 27
88 -6 c48 -3 147 -12 221 -19z m4261 -18 c0 -16 -6 -23 -20 -23 -11 0 -20 4
-20 8 0 4 7 8 15 8 8 0 15 7 15 15 0 8 2 15 5 15 3 0 5 -10 5 -23z m-4771 -3
c3 -3 7 -98 8 -211 2 -159 0 -204 -10 -200 -6 2 -14 12 -16 23 -8 46 -47 57
-102 28 -22 -11 -34 -12 -43 -5 -18 15 -26 3 -20 -33 5 -27 4 -28 -7 -12 -12
20 -8 101 17 286 7 58 14 114 14 124 0 17 6 18 77 12 42 -3 79 -9 82 -12z
m5108 -31 c-3 -10 -5 -4 -5 12 0 17 2 24 5 18 2 -7 2 -21 0 -30z m-4420 21
c-3 -3 -12 -4 -19 -1 -8 3 -5 6 6 6 11 1 17 -2 13 -5z m4590 -66 c-3 -7 -5 -2
-5 12 0 14 2 19 5 13 2 -7 2 -19 0 -25z m-4670 16 c-3 -3 -12 -4 -19 -1 -8 3
-5 6 6 6 11 1 17 -2 13 -5z m-180 -20 c-3 -3 -12 -4 -19 -1 -8 3 -5 6 6 6 11
1 17 -2 13 -5z m4860 -56 c-3 -7 -5 -2 -5 12 0 14 2 19 5 13 2 -7 2 -19 0 -25z
m-3657 -18 c0 -10 3 -25 6 -34 10 -27 -11 -18 -29 13 -24 41 -23 65 3 51 11
-6 20 -19 20 -30z m-1080 -5 c-6 -8 -19 -13 -28 -13 -9 1 -48 -18 -86 -41 -37
-23 -70 -40 -73 -38 -2 3 11 21 31 40 48 49 193 97 156 52z m1188 3 c16 -16
15 -28 -3 -28 -8 0 -15 2 -15 4 0 2 -3 11 -6 20 -7 19 7 21 24 4z m2550 -53
c2 -33 7 -64 13 -69 15 -16 10 -45 -11 -56 -11 -6 -21 -7 -21 -3 -1 4 -2 19
-4 33 -1 14 -5 56 -9 93 -7 64 -6 69 11 65 15 -3 19 -14 21 -63z m840 5 c0 -9
-3 -7 -8 5 -5 11 -8 29 -8 40 0 16 2 15 8 -5 4 -14 8 -32 8 -40z m-949 3 c8
-21 19 -41 25 -45 8 -6 8 -8 0 -8 -6 0 -24 11 -40 25 -16 14 -42 29 -59 32
l-29 6 34 13 c52 18 55 17 69 -23z m-2331 -15 c-20 -12 -25 -10 -31 11 -7 28
3 34 25 14 14 -13 16 -18 6 -25z m2526 26 c18 -18 22 -99 5 -109 -16 -10 -18
-4 -25 63 -7 66 -5 71 20 46z m-4020 -48 c-3 -9 -10 -16 -15 -16 -14 0 -11 28
4 33 16 6 19 3 11 -17z m1394 -3 c-1 -16 2 -39 6 -52 6 -18 5 -22 -5 -19 -8 3
-14 11 -14 19 0 8 -4 20 -9 28 -5 8 -4 16 4 21 7 4 9 13 6 19 -4 6 -3 11 3 11
6 0 9 -12 9 -27z m2726 0 c5 -17 3 -29 -5 -34 -19 -12 -29 -1 -29 32 0 37 25
39 34 2z m-2614 -28 c0 -9 -6 -12 -15 -9 -8 4 -15 10 -15 15 0 5 7 9 15 9 8 0
15 -7 15 -15z m-1470 -5 c-33 -23 -50 -30 -50 -22 0 5 10 14 23 20 28 14 47
15 27 2z m1224 -6 c3 -8 2 -12 -4 -9 -6 3 -10 10 -10 16 0 14 7 11 14 -7z
m323 -20 c-3 -3 -12 -4 -19 -1 -8 3 -5 6 6 6 11 1 17 -2 13 -5z m2288 -84 c2
-38 0 -41 -19 -36 -11 3 -28 6 -36 6 -12 1 -12 3 2 14 10 7 22 25 28 41 13 35
22 27 25 -25z m-2465 25 c0 -8 -2 -15 -4 -15 -2 0 -6 7 -10 15 -3 8 -1 15 4
15 6 0 10 -7 10 -15z m2955 -45 c-3 -5 1 -10 9 -10 10 0 13 -6 10 -15 -3 -8
-2 -27 3 -42 13 -40 5 -73 -21 -84 -28 -13 -136 15 -136 36 0 7 -7 15 -15 19
-9 3 -15 18 -15 40 0 33 2 34 58 48 69 18 115 22 107 8z m-2064 -53 c-10 -9
-11 -8 -5 6 3 10 9 15 12 12 3 -3 0 -11 -7 -18z m1456 17 c13 -4 21 -9 19 -13
-3 -4 -1 -13 5 -21 7 -12 9 -9 9 9 0 24 1 24 14 6 27 -38 -12 -64 -41 -27 -8
9 -12 12 -9 5 4 -6 0 -14 -6 -16 -8 -4 -7 -6 4 -6 9 -1 19 -5 23 -11 3 -5 -8
-7 -27 -5 -17 2 -36 11 -41 21 -5 9 -17 24 -27 34 -10 10 -16 21 -12 24 7 8
61 7 89 0z m403 -34 l0 -30 -25 22 c-27 23 -25 38 6 38 14 0 19 -7 19 -30z
m-505 10 c8 -13 -5 -13 -25 0 -13 8 -13 10 2 10 9 0 20 -4 23 -10z m-2333 -48
c-27 -4 -37 2 -27 17 4 8 13 7 28 -1 l22 -13 -23 -3z m1088 -1 c0 -15 10 -48
23 -72 13 -24 27 -60 31 -79 l6 -35 -59 60 c-43 43 -62 70 -66 96 -6 34 -4 38
22 47 41 15 43 15 43 -17z m-179 -8 c-12 -20 -14 -14 -5 12 4 9 9 14 11 11 3
-2 0 -13 -6 -23z m1417 10 c5 -18 -10 -16 -34 2 -18 15 -18 15 5 13 14 -2 26
-9 29 -15z m-973 -21 c8 -34 2 -35 -16 -3 -12 21 -13 28 -3 28 7 0 15 -11 19
-25z m44 12 c7 5 9 1 5 -8 -3 -9 -2 -16 4 -16 6 0 13 6 15 13 5 11 11 -17 8
-35 0 -5 3 -8 8 -8 7 0 31 -112 37 -172 3 -33 -25 -18 -63 32 -38 51 -42 63
-43 120 0 77 2 93 10 80 4 -7 13 -10 19 -6z m-540 -45 c-20 -12 -21 -5 -7 27
13 28 13 28 16 5 2 -13 -2 -27 -9 -32z m1526 41 c3 -6 -1 -7 -9 -4 -18 7 -21
14 -7 14 6 0 13 -4 16 -10z m-2390 -10 c7 -12 -2 -12 -30 0 -19 8 -19 9 2 9
12 1 25 -3 28 -9z m822 -12 c-3 -8 -6 -5 -6 6 -1 11 2 17 5 13 3 -3 4 -12 1
-19z m173 1 c0 -5 -4 -9 -10 -9 -5 0 -10 7 -10 16 0 8 5 12 10 9 6 -3 10 -10
10 -16z m-927 -6 c-7 -2 -19 -2 -25 0 -7 3 -2 5 12 5 14 0 19 -2 13 -5z m1292
-58 c5 -34 4 -37 -6 -20 -7 11 -15 22 -18 25 -3 3 -7 18 -8 34 -2 25 0 28 12
15 7 -8 16 -32 20 -54z m649 40 c11 -8 18 -17 15 -19 -2 -3 -15 4 -29 14 -14
11 -20 20 -15 19 6 0 19 -6 29 -14z m136 6 c0 -5 -9 -7 -20 -4 -11 3 -20 7
-20 9 0 2 9 4 20 4 11 0 20 -4 20 -9z m321 -55 c17 10 75 -15 75 -34 1 -42 16
-203 25 -267 6 -38 12 -138 14 -221 3 -83 9 -191 15 -240 5 -49 14 -127 20
-173 5 -46 7 -87 5 -91 -3 -4 -51 -10 -107 -14 -57 -4 -111 -9 -120 -12 -25
-7 -23 23 1 38 30 18 8 38 -34 31 l-33 -5 -6 58 c-3 33 -11 127 -16 209 -6 83
-12 167 -15 187 -5 36 -4 37 25 33 30 -4 30 -3 29 43 0 26 -4 70 -9 97 -8 53
-5 69 10 45 8 -12 10 -10 10 8 0 13 -4 20 -10 17 -5 -3 -12 6 -16 20 -3 13
-10 23 -14 20 -9 -6 -55 63 -47 71 2 3 16 -9 30 -26 14 -16 28 -30 32 -30 3 0
15 -9 27 -20 37 -34 31 -14 -6 25 -20 20 -36 41 -36 46 0 14 20 11 21 -3 0
-10 2 -10 6 0 4 9 14 6 40 -14 19 -14 37 -24 40 -21 3 3 -18 22 -46 42 -77 55
-66 56 37 2 28 -15 52 -26 52 -23 0 6 -134 91 -141 89 -11 -4 -18 36 -8 43 5
3 9 -3 9 -13 0 -14 2 -15 9 -4 5 8 14 10 22 6 8 -4 -1 6 -18 23 -20 19 -33 40
-32 54 1 15 3 17 6 7 3 -14 115 -66 183 -86 36 -10 -50 33 -105 53 -33 12 -61
27 -61 33 -1 6 -2 16 -3 21 0 6 -6 9 -12 8 -6 -2 -14 2 -16 9 -3 8 28 1 77
-17 45 -16 86 -27 91 -24z m-1641 40 c0 -3 -4 -8 -10 -11 -5 -3 -10 -1 -10 4
0 6 5 11 10 11 6 0 10 -2 10 -4z m153 -15 c5 -5 1 -12 -12 -16 -12 -3 -21 -12
-21 -19 0 -8 -19 -18 -42 -24 -35 -9 -44 -8 -55 6 -17 23 -17 24 20 49 33 22
90 24 110 4z m909 7 c14 -12 38 -87 38 -119 0 -8 -12 -10 -40 -5 -22 3 -40 3
-40 -2 0 -4 33 -14 74 -21 67 -12 74 -15 74 -37 0 -14 -6 -24 -15 -24 -8 0
-12 -4 -8 -9 5 -9 -22 -16 -85 -23 -14 -2 -25 -7 -26 -13 0 -5 -4 -18 -9 -28
-10 -24 1 -168 14 -176 5 -4 11 -42 13 -86 l3 -80 68 -9 c37 -5 69 -7 71 -5 2
2 0 45 -4 94 -14 156 -20 333 -11 300 5 -16 14 -115 21 -220 10 -169 36 -516
39 -522 0 -2 9 -3 20 -3 22 0 43 -22 33 -35 -7 -11 -52 -15 -49 -6 4 15 -30
51 -48 51 -18 -1 -19 -1 -2 -11 9 -5 17 -15 17 -20 0 -6 -5 -7 -10 -4 -6 4
-17 2 -24 -4 -10 -8 -17 -7 -27 5 -11 13 -10 17 2 26 12 8 11 9 -2 5 -9 -3
-22 0 -28 6 -16 16 -41 17 -41 1 0 -12 -3 -12 -14 -2 -18 16 -14 20 57 48 85
35 78 45 -38 57 -67 8 -70 9 -76 38 -4 17 -7 65 -8 108 -1 69 -3 77 -20 77
-37 0 -71 -19 -71 -40 0 -11 -4 -20 -10 -20 -12 0 -9 -35 -25 250 -19 334 -20
310 10 310 14 0 25 5 25 10 0 6 -9 10 -20 10 -21 0 -24 15 -14 68 6 27 9 30
25 21 11 -5 19 -18 19 -27 0 -10 7 -27 15 -38 14 -18 14 -18 15 11 0 17 -6 42
-14 57 -11 21 -11 26 -1 22 7 -3 16 0 20 6 4 6 15 8 25 5 10 -3 21 -1 25 5 9
14 38 13 57 -2z m-1161 -21 c-10 -9 -11 -8 -5 6 3 10 9 15 12 12 3 -3 0 -11
-7 -18z m1006 17 c-3 -3 -12 -4 -19 -1 -8 3 -5 6 6 6 11 1 17 -2 13 -5z m543
-4 c13 -8 13 -10 -2 -10 -9 0 -20 5 -23 10 -8 13 5 13 25 0z m-2360 -19 c0 -5
-10 -12 -22 -16 -13 -3 -18 -9 -11 -11 9 -4 9 -11 1 -30 -6 -13 -15 -24 -20
-24 -11 0 -7 61 5 78 11 14 47 17 47 3z m726 -31 c-14 -17 -26 -29 -26 -25 0
10 43 65 48 60 2 -2 -7 -18 -22 -35z m2024 11 c0 -27 29 -330 41 -430 7 -66 8
-96 0 -104 -6 -6 -13 -9 -15 -6 -11 10 -66 555 -58 564 9 9 32 -9 32 -24z
m847 -8 c-3 -10 -5 -4 -5 12 0 17 2 24 5 18 2 -7 2 -21 0 -30z m-2526 18 c-11
-7 -9 -10 9 -13 37 -5 34 -25 -7 -47 -47 -25 -37 -28 12 -4 31 15 37 15 45 3
13 -21 4 -29 -57 -56 -65 -29 -82 -31 -30 -3 47 25 48 33 1 13 -41 -17 -57
-11 -28 12 18 15 18 15 -3 5 -31 -15 -38 -14 -22 6 12 15 12 16 -3 11 -10 -4
-19 -1 -22 8 -5 13 28 34 54 34 5 0 14 9 20 20 6 11 18 20 28 20 14 0 14 -2 3
-9z m1048 -75 l-1 -51 -18 50 c-10 28 -19 59 -19 69 -1 18 0 18 19 1 15 -14
20 -30 19 -69z m261 64 c0 -5 -4 -10 -10 -10 -5 0 -10 5 -10 10 0 6 5 10 10
10 6 0 10 -4 10 -10z m-4017 -20 c-3 -11 -7 -20 -9 -20 -2 0 -4 9 -4 20 0 11
4 20 9 20 5 0 7 -9 4 -20z m2393 -26 c-4 -14 -11 -22 -15 -19 -5 3 -7 -5 -4
-17 4 -21 3 -22 -10 -5 -14 16 -15 16 -32 -9 -9 -14 -19 -23 -22 -20 -3 2 14
30 38 61 43 55 57 58 45 9z m2088 38 c5 -8 35 -297 52 -496 6 -64 4 -78 -7
-74 -18 6 -26 42 -39 188 -6 69 -17 185 -23 258 -10 105 -10 132 -1 132 7 0
15 -4 18 -8z m-2800 -11 c3 -5 -5 -12 -18 -15 -13 -3 -32 -9 -41 -12 -15 -6
-16 -4 -6 14 12 22 55 30 65 13z m755 -35 c-9 -8 -10 -7 -5 7 3 10 7 24 7 30
1 7 3 4 6 -7 3 -10 -1 -23 -8 -30z m-419 -22 c0 11 3 17 6 13 4 -3 3 -14 -1
-24 -11 -26 -18 -130 -9 -120 5 5 14 -7 21 -25 13 -32 13 -31 9 24 -3 38 0 62
9 75 14 17 14 17 15 -6 0 -13 3 -21 6 -18 8 8 53 -62 76 -118 19 -46 22 -135
8 -295 -5 -58 -12 -141 -16 -185 -4 -44 -9 -74 -11 -67 -8 22 -25 13 -19 -10
3 -13 -1 -9 -9 9 -17 38 -30 47 -53 38 -14 -5 -14 -7 -2 -15 12 -8 10 -10 -10
-11 -14 -1 -36 0 -49 1 -13 1 -28 -4 -32 -12 -6 -9 -9 -8 -9 8 0 26 -18 44
-45 44 -20 -1 -20 -1 0 -16 18 -14 14 -14 -48 -9 -50 4 -67 2 -67 -7 0 -7 -12
7 -26 31 -25 40 -26 49 -20 125 16 205 26 253 81 370 18 39 38 88 45 109 15
49 22 44 10 -8 -8 -38 -40 -271 -40 -294 0 -6 7 -11 15 -11 9 0 15 -10 16 -22
1 -21 2 -21 6 -3 2 11 13 40 23 65 11 25 27 92 35 150 l14 105 -5 -115 c-2
-63 0 -121 5 -129 16 -25 23 65 16 217 -5 109 -3 143 5 132 9 -13 11 -12 9 5
-4 53 3 60 22 20 11 -25 19 -33 19 -21z m2564 3 c3 -23 15 -132 26 -242 11
-110 23 -221 26 -247 5 -39 3 -48 -9 -48 -18 0 -23 18 -37 145 -5 55 -17 162
-25 237 -19 175 -19 209 -1 202 8 -3 17 -24 20 -47z m-2079 6 c-16 -39 -39
-63 -61 -63 -19 0 -23 14 -9 27 11 10 15 10 18 0 3 -7 6 -3 6 7 1 20 38 66 53
66 4 0 1 -17 -7 -37z m41 -8 c-1 -10 -10 -19 -19 -21 -20 -3 -20 -5 -6 36 9
24 14 29 20 18 4 -8 7 -22 5 -33z m299 25 c16 -18 16 -20 2 -20 -9 0 -21 9
-27 20 -6 11 -7 20 -2 20 5 0 17 -9 27 -20z m249 -30 c8 0 22 -13 31 -30 10
-19 20 -27 30 -23 24 9 55 -26 54 -61 -1 -17 2 -175 6 -350 8 -303 7 -320 -10
-333 -17 -12 -17 -13 -2 -13 11 0 17 -8 17 -22 0 -20 -5 -23 -40 -24 -34 0
-40 2 -40 21 0 27 -18 45 -44 45 -19 -1 -19 -2 4 -15 18 -10 20 -14 8 -15 -9
0 -18 -4 -20 -9 -1 -5 -14 -11 -28 -13 -24 -3 -25 0 -33 62 -4 36 -9 75 -10
87 -1 13 -7 23 -13 23 -6 0 -17 7 -24 15 -10 12 -10 15 1 15 7 0 3 11 -12 27
l-24 27 35 -21 c22 -13 45 -41 63 -74 38 -73 53 -85 29 -23 -24 63 -66 120
-104 140 -15 8 -28 16 -28 18 0 7 59 1 66 -7 13 -12 36 -8 28 6 -5 8 -2 8 9
-2 18 -14 24 -36 7 -26 -6 3 0 -11 12 -31 12 -21 24 -32 26 -25 2 7 -4 22 -14
34 -10 12 -12 16 -4 10 46 -41 19 30 -32 84 -19 19 -28 38 -25 47 3 8 2 18 -3
21 -6 4 -10 13 -10 21 0 11 8 9 33 -9 17 -13 39 -28 47 -32 12 -7 13 -6 3 7
-7 8 -10 18 -7 21 4 3 -12 14 -35 23 -22 9 -41 23 -41 31 0 10 14 4 46 -17 25
-18 48 -29 51 -26 7 7 -31 40 -68 61 -31 17 -44 44 -29 59 7 7 24 3 55 -12 30
-14 42 -17 39 -8 -3 7 -23 21 -45 31 -40 19 -54 41 -19 31 54 -16 61 -14 18 5
-56 25 -70 48 -30 50 15 1 20 3 11 6 -11 3 -19 21 -24 56 -6 45 -8 49 -16 28
-6 -15 -6 -28 2 -37 6 -7 7 -18 3 -25 -4 -8 -14 1 -26 25 -23 44 -16 80 13 73
10 -3 19 -1 19 5 0 5 12 -4 26 -21 14 -17 23 -35 19 -41 -10 -17 6 -80 22 -80
16 0 9 57 -13 102 -8 15 -14 33 -14 41 0 8 -11 31 -25 51 -14 20 -25 40 -25
43 0 8 69 -70 70 -79 0 -4 15 -29 32 -55 24 -35 34 -43 36 -30 4 21 -51 122
-66 122 -6 0 -14 4 -19 9 -5 5 -3 6 5 2 14 -8 17 10 2 19 -5 3 -10 12 -10 18
1 7 9 2 19 -10 11 -13 26 -23 35 -23z m1577 18 c1 -7 1 -16 0 -21 -1 -4 11
-13 26 -19 16 -7 29 -12 30 -13 1 -1 -6 -28 -15 -61 -18 -58 -17 -182 1 -200
3 -4 28 -12 54 -19 l48 -12 11 -57 c13 -61 20 -117 30 -238 l7 -77 -30 8 c-17
5 -40 14 -52 20 -29 16 -26 3 7 -25 15 -13 24 -24 20 -24 -5 0 1 -9 13 -21 15
-15 20 -30 17 -51 -3 -21 0 -32 14 -39 11 -6 18 -21 18 -40 0 -17 5 -39 10
-50 9 -17 7 -19 -17 -20 -27 0 -27 -1 -6 -9 13 -5 125 -19 250 -31 138 -13
231 -26 235 -33 6 -8 8 -7 8 2 0 7 9 11 23 8 12 -2 67 -7 122 -12 55 -4 111
-8 125 -9 14 -2 35 -3 48 -4 19 -1 22 -7 22 -42 0 -22 -4 -38 -9 -34 -6 3 -7
-9 -4 -31 l6 -36 -49 7 c-27 4 -45 4 -41 -1 4 -5 -16 -14 -45 -21 -64 -15 -91
-16 -84 -4 3 5 -9 8 -27 7 -29 -1 -32 2 -35 29 -6 54 -19 48 -16 -7 3 -40 0
-33 -11 32 -21 117 -25 120 -18 12 l6 -92 -59 5 c-141 11 -194 18 -199 25 -3
5 -56 7 -118 5 -85 -2 -96 -1 -47 4 l65 7 -77 2 c-42 1 -80 -2 -83 -8 -3 -5
-17 -10 -31 -10 -14 0 -22 4 -19 10 3 6 -4 10 -16 10 -12 0 -28 8 -35 18 -12
16 -13 15 -14 -8 0 -18 -3 -21 -9 -11 -6 10 -10 10 -16 1 -6 -9 -10 -9 -16 1
-5 8 -9 9 -9 4 0 -11 -29 -15 -128 -18 -39 -2 -53 2 -57 13 -7 23 -24 160 -25
199 0 33 0 34 38 28 55 -9 282 -20 282 -14 0 3 -4 17 -10 32 -5 14 -14 74 -20
133 -11 123 -29 203 -48 217 -7 6 -17 47 -22 95 -5 47 -16 148 -25 225 -30
273 -30 275 -11 275 9 0 17 -6 17 -12z m1146 -4 c-3 -3 -12 -4 -19 -1 -8 3 -5
6 6 6 11 1 17 -2 13 -5z m-5957 -11 c0 -1 -8 -7 -18 -12 -13 -7 -19 -6 -19 2
0 7 9 13 19 13 10 0 18 -1 18 -3z m1760 -13 c-20 -13 -43 -13 -35 0 3 6 16 10
28 10 18 0 19 -2 7 -10z m262 -12 c-7 -7 -12 -8 -12 -2 0 14 12 26 19 19 2 -3
-1 -11 -7 -17z m915 5 c2 -5 -11 -15 -29 -21 -31 -10 -29 -11 16 -5 61 7 55
-12 -7 -20 -23 -3 -52 -9 -62 -12 -18 -6 -18 -5 -4 7 9 7 16 17 15 22 -1 5 15
15 34 21 20 7 30 14 22 18 -8 4 -9 5 0 3 6 -1 13 -7 15 -13z m86 10 c-7 -2
-19 -2 -25 0 -7 3 -2 5 12 5 14 0 19 -2 13 -5z m1122 -4 c11 -17 -1 -21 -15
-4 -8 9 -8 15 -2 15 6 0 14 -5 17 -11z m-1831 -34 c5 -22 4 -26 -4 -15 -5 8
-10 24 -10 34 0 26 6 18 14 -19z m826 -1 c0 -2 -10 -3 -23 -2 -14 1 -23 9 -23
19 0 15 2 15 23 2 13 -9 23 -17 23 -19z m-410 16 c0 -5 -8 -10 -17 -10 -15 0
-16 2 -3 10 19 12 20 12 20 0z m318 -32 c13 -51 10 -57 -12 -23 -12 18 -13 25
-4 26 7 0 3 4 -9 9 -28 11 -30 30 -4 30 14 0 21 -11 29 -42z m1120 -7 c4 -27
-13 -27 -32 1 -22 31 -20 39 7 29 12 -4 23 -18 25 -30z m-1891 -3 c-3 -7 -5
-2 -5 12 0 14 2 19 5 13 2 -7 2 -19 0 -25z m399 7 c-11 -8 -24 -15 -30 -15 -5
0 -1 7 10 15 10 8 24 14 29 14 6 0 1 -6 -9 -14z m-707 -57 c-12 -23 -25 -54
-30 -68 -7 -24 -7 -24 -8 -3 -1 21 50 125 57 118 2 -2 -7 -23 -19 -47z m1044
38 c24 -19 22 -22 -20 -24 -21 -1 -64 -7 -96 -14 -32 -6 -60 -9 -62 -6 -5 5
132 56 150 57 6 0 18 -6 28 -13z m-2829 -12 c10 -25 1 -27 -19 -4 -15 17 -16
20 -3 20 9 0 19 -7 22 -16z m5812 7 c-4 -5 0 -12 6 -14 7 -3 -2 -3 -21 0 -23
4 -32 3 -28 -4 4 -6 0 -13 -8 -17 -8 -3 -15 -1 -15 5 0 6 -3 8 -7 6 -5 -3 -17
-1 -28 3 -18 7 18 17 98 29 5 0 6 -3 3 -8z m-3452 -26 c3 -9 0 -15 -8 -15 -8
0 -16 7 -20 15 -3 9 0 15 8 15 8 0 16 -7 20 -15z m1406 -330 c11 -176 23 -335
26 -352 4 -21 2 -33 -5 -33 -20 0 -31 39 -31 112 0 40 -4 125 -10 188 -17 221
-23 426 -11 415 6 -7 19 -136 31 -330z m1920 315 c0 -11 -4 -20 -10 -20 -5 0
-10 9 -10 20 0 11 5 20 10 20 6 0 10 -9 10 -20z m-5701 -25 c34 -39 38 -57 17
-74 -12 -10 -14 -9 -10 6 5 19 -38 77 -49 67 -3 -4 -5 3 -4 15 2 29 10 27 46
-14z m2347 20 c14 -13 14 -16 -1 -21 -9 -4 -22 -1 -28 6 -9 10 -9 11 2 5 11
-6 13 -4 8 8 -8 21 0 22 19 2z m-483 -100 c-3 -45 -15 -97 -25 -120 -11 -23
-17 -30 -14 -15 3 14 11 73 18 132 14 123 31 125 21 3z m1007 94 c0 -5 5 -7
12 -3 7 4 8 3 4 -4 -4 -7 -31 -12 -64 -11 l-57 1 35 13 c43 17 70 18 70 4z
m54 -15 c3 -8 2 -12 -4 -9 -6 3 -10 10 -10 16 0 14 7 11 14 -7z m-554 -33
c-14 -27 -30 -36 -30 -17 0 8 8 20 18 25 23 14 24 14 12 -8z m134 0 c3 -5 -1
-14 -9 -21 -8 -7 -15 -19 -15 -26 0 -12 4 -12 24 1 23 16 25 15 37 -7 7 -12
13 -42 13 -65 1 -24 3 -38 4 -33 10 29 17 3 14 -51 -2 -34 1 -66 7 -72 7 -7 9
0 5 25 -8 44 11 85 31 68 10 -8 14 -8 17 1 2 6 2 -20 0 -57 -3 -62 0 -72 22
-99 l25 -30 -20 53 -19 53 26 44 c14 25 27 45 29 45 2 0 -1 -16 -6 -36 -13
-44 -6 -83 28 -157 25 -53 26 -62 16 -111 -7 -30 -9 -64 -6 -75 4 -16 1 -21
-13 -21 -18 -1 -18 -1 0 -15 19 -14 17 -15 -18 -15 -22 0 -35 -4 -31 -10 3 -5
0 -10 -7 -10 -7 0 -21 14 -30 30 -11 20 -25 30 -40 30 -23 -1 -23 -1 -3 -16
l20 -16 -20 2 c-48 5 -74 -1 -78 -17 -4 -14 -5 -12 -6 5 0 12 -10 31 -21 42
-20 20 -20 20 -50 -12 -21 -21 -30 -26 -30 -15 0 9 -5 19 -11 23 -9 5 -10 -1
-5 -20 9 -36 -7 -26 -24 14 -8 19 -20 30 -32 30 -18 0 -18 -1 -4 -16 9 -8 16
-17 16 -18 0 -6 -66 7 -76 15 -13 10 -24 2 -24 -18 0 -8 5 -11 10 -8 6 3 10 1
10 -4 0 -15 -27 -14 -33 2 -5 14 20 389 31 465 5 29 17 60 26 70 17 16 18 14
14 -46 -2 -34 -1 -57 4 -50 4 7 8 28 8 46 0 19 4 31 10 27 6 -4 7 6 3 26 -4
23 -3 30 5 25 7 -4 12 -15 12 -24 1 -12 5 -9 15 10 11 19 27 30 58 36 56 13
85 14 91 3z m-1043 -30 c-6 -10 -8 -21 -6 -23 3 -3 -2 -22 -10 -43 -9 -20 -18
-35 -20 -33 -5 4 20 92 30 108 11 18 16 10 6 -9z m1117 0 c10 -6 10 -10 -2
-20 -12 -10 -17 -8 -26 8 -12 23 2 29 28 12z m1438 -36 c9 -40 -4 -27 -16 15
-6 20 -6 30 -1 24 5 -5 13 -22 17 -39z m801 39 c-3 -3 -12 -4 -19 -1 -8 3 -5
6 6 6 11 1 17 -2 13 -5z m-2197 -47 c0 -17 -29 -57 -41 -57 -15 0 -10 37 7 54
19 19 34 21 34 3z m284 -4 c4 -5 12 -9 17 -9 5 -1 14 -2 19 -3 6 0 10 -8 10
-16 0 -16 -25 -14 -105 8 l-40 11 35 7 c52 10 56 10 64 2z m-1433 -26 c-10 -9
-11 -8 -5 6 3 10 9 15 12 12 3 -3 0 -11 -7 -18z m68 -34 c-18 -21 -38 -40 -42
-44 -5 -3 -11 -26 -13 -50 -6 -58 -14 -63 -14 -7 0 41 5 51 47 92 56 55 71 61
22 9z m2481 0 c0 -10 3 -29 7 -42 4 -16 2 -22 -4 -18 -13 8 -22 77 -11 77 4 0
8 -8 8 -17z m-1078 -16 c20 -32 3 -34 -62 -8 -36 15 -41 20 -25 24 29 8 78 -1
87 -16z m-2688 -23 c9 -3 13 -11 10 -16 -4 -6 4 -8 23 -4 21 5 34 2 43 -9 11
-13 10 -14 -4 -9 -12 4 -15 2 -10 -9 3 -10 -2 -17 -14 -21 -39 -13 -35 -66 4
-66 13 0 24 -4 24 -10 0 -9 -41 -35 -50 -31 -2 1 -6 -2 -8 -8 -2 -6 10 -16 27
-22 32 -11 43 -42 19 -53 -10 -5 -10 -7 0 -12 6 -3 12 -12 12 -20 0 -8 6 -17
14 -20 17 -6 28 -31 18 -38 -12 -7 -72 50 -72 69 0 10 -13 22 -31 28 -22 9
-29 17 -25 30 3 14 0 16 -15 12 -18 -6 -19 0 -19 98 0 120 5 130 54 111z
m1140 -70 c3 -8 2 -12 -4 -9 -6 3 -10 10 -10 16 0 14 7 11 14 -7z m144 -19
c-6 -14 -13 -23 -15 -21 -5 5 15 46 22 46 3 0 -1 -11 -7 -25z m1420 13 c7 -7
12 -16 12 -20 0 -15 -15 -8 -28 12 -13 22 -3 27 16 8z m1979 -20 c-3 -7 -5 -2
-5 12 0 14 2 19 5 13 2 -7 2 -19 0 -25z m-3489 -64 c-3 -42 -1 -70 3 -62 5 7
9 9 9 3 -1 -5 -7 -18 -14 -28 -8 -10 -12 -27 -9 -38 6 -20 -4 -20 -52 2 -11 5
-47 15 -79 24 -73 18 -87 30 -26 21 48 -6 89 7 51 17 -12 3 -21 10 -21 16 0 6
7 8 15 5 10 -4 15 0 15 16 0 12 4 18 10 15 10 -6 40 17 40 32 0 4 8 17 16 28
15 19 15 19 12 -9 -2 -17 2 -31 10 -33 8 -3 12 7 12 31 0 20 3 36 6 36 4 0 4
-34 2 -76z m126 31 c-4 -8 -15 -32 -26 -52 -18 -33 -19 -34 -14 -9 6 26 34 76
42 76 2 0 1 -7 -2 -15z m-219 -15 c-3 -5 -10 -10 -16 -10 -5 0 -9 5 -9 10 0 6
7 10 16 10 8 0 12 -4 9 -10z m1675 -26 c0 -2 -9 0 -20 6 -11 6 -20 13 -20 16
0 2 9 0 20 -6 11 -6 20 -13 20 -16z m-3152 -4 c21 -20 21 -22 5 -55 -9 -19
-21 -35 -26 -35 -5 0 -16 -8 -24 -17 -14 -17 -14 -17 -9 -1 3 12 -6 27 -29 45
l-34 27 29 13 c34 14 39 29 13 36 -10 3 -2 5 18 6 23 1 43 -6 57 -19z m3106 4
c5 -14 4 -15 -9 -4 -17 14 -19 20 -6 20 5 0 12 -7 15 -16z m-1418 -58 c-7 -33
-18 -62 -26 -64 -14 -5 -14 -2 16 81 9 26 18 46 19 45 2 -2 -3 -30 -9 -62z
m-1759 48 c-3 -3 -12 -4 -19 -1 -8 3 -5 6 6 6 11 1 17 -2 13 -5z m1849 -20
c-3 -8 -1 -14 4 -14 5 0 7 -13 5 -30 -3 -16 -7 -44 -10 -60 -3 -22 -1 -29 7
-24 7 4 8 3 4 -4 -11 -18 -24 -14 -31 8 -9 29 5 151 17 144 5 -3 7 -12 4 -20z
m3259 7 l40 -9 -40 0 c-22 0 -51 4 -65 8 l-25 8 25 0 c14 1 43 -3 65 -7z
m-3418 -57 c-6 -25 -19 -49 -29 -55 -10 -5 -18 -8 -18 -5 0 14 48 106 55 106
1 0 -2 -21 -8 -46z m108 26 c-4 -13 -2 -20 6 -20 10 0 10 -3 1 -12 -7 -7 -12
-23 -12 -37 0 -15 -5 -33 -10 -41 -8 -13 -10 -12 -11 5 -3 34 1 69 13 98 12
31 22 37 13 7z m-1615 0 c0 -5 -8 -6 -17 -3 -12 5 -15 2 -10 -9 3 -10 0 -19
-9 -22 -8 -3 -14 -1 -14 3 0 5 -3 16 -6 25 -5 13 1 16 25 16 17 0 31 -4 31
-10z m1315 0 c13 -6 15 -9 5 -9 -8 0 -22 4 -30 9 -18 12 -2 12 25 0z m204 -59
c-6 -18 -13 -30 -15 -28 -2 2 1 18 7 36 6 18 13 30 15 28 2 -2 -1 -18 -7 -36z
m-1261 7 c-1 -7 2 -23 6 -36 10 -29 1 -39 -19 -22 -20 17 -20 70 0 70 9 0 15
-6 13 -12z m1097 -14 c17 -8 20 -11 8 -9 -11 3 -47 10 -78 15 -32 5 -60 12
-64 15 -10 11 103 -7 134 -21z m272 -6 c-3 -8 -6 -5 -6 6 -1 11 2 17 5 13 3
-3 4 -12 1 -19z m70 -30 c-3 -7 -5 -2 -5 12 0 14 2 19 5 13 2 -7 2 -19 0 -25z
m-142 12 c3 -6 -4 -10 -17 -10 -18 0 -20 2 -8 10 19 12 18 12 25 0z m162 -42
c-3 -8 -6 -5 -6 6 -1 11 2 17 5 13 3 -3 4 -12 1 -19z m1213 -75 c0 -19 2 -21
-39 42 l-33 50 36 -37 c20 -21 36 -45 36 -55z m20 46 c15 -28 5 -23 -15 7 -9
15 -12 23 -6 20 6 -4 16 -16 21 -27z m40 -20 c0 -10 -6 -21 -12 -25 -7 -4 -10
-4 -7 0 4 4 3 24 -2 44 -7 34 -6 35 7 18 8 -11 14 -28 14 -37z m-515 11 c3 -5
1 -10 -4 -10 -6 0 -11 5 -11 10 0 6 2 10 4 10 3 0 8 -4 11 -10z m99 -46 c3 -8
2 -12 -4 -9 -6 3 -10 10 -10 16 0 14 7 11 14 -7z m668 -36 c-4 -16 -7 -18 -10
-8 -3 8 -9 23 -14 33 -8 16 -7 17 10 8 15 -8 19 -17 14 -33z m136 1 c36 -14
25 -29 -22 -29 -39 0 -44 3 -48 25 -5 22 -3 24 21 18 14 -3 36 -10 49 -14z
m81 -19 c-9 -6 -5 -10 12 -13 16 -3 13 -4 -8 -3 -25 2 -33 -2 -36 -19 -2 -12
-5 -7 -8 15 -4 35 -4 36 24 32 19 -3 25 -7 16 -12z m167 -66 c-3 -9 -19 -13
-43 -12 l-38 1 38 4 c36 4 37 5 39 46 1 38 2 39 5 9 3 -19 2 -40 -1 -48z m412
13 c25 -20 4 -17 -64 9 -81 30 -86 33 -79 44 5 8 119 -34 143 -53z m-4093 -67
c3 -5 -1 -10 -9 -10 -9 0 -16 5 -16 10 0 6 4 10 9 10 6 0 13 -4 16 -10z m4040
-38 c-3 -3 -11 0 -18 7 -9 10 -8 11 6 5 10 -3 15 -9 12 -12z m-4255 -37 c16
-19 0 -19 -26 0 -16 12 -16 14 -3 15 9 0 22 -7 29 -15z m4261 -5 c6 0 7 -5 3
-12 -5 -8 -2 -9 10 -5 10 4 15 3 11 -3 -9 -15 -20 -12 -46 11 -19 16 -20 19
-6 15 10 -3 23 -6 28 -6z m1776 -16 c-3 -3 -12 -4 -19 -1 -8 3 -5 6 6 6 11 1
17 -2 13 -5z m-1719 -17 c8 -10 6 -13 -7 -13 -11 0 -17 6 -14 13 3 7 6 13 8
13 1 0 7 -6 13 -13z m1749 -3 c-3 -3 -12 -4 -19 -1 -8 3 -5 6 6 6 11 1 17 -2
13 -5z m-1672 -72 c-3 -3 -11 0 -18 7 -9 10 -8 11 6 5 10 -3 15 -9 12 -12z
m1525 -18 c0 -2 -9 -4 -20 -4 -11 0 -20 4 -20 9 0 5 9 7 20 4 11 -3 20 -7 20
-9z m-1250 -12 c0 -14 -11 -21 -26 -15 -21 8 -17 23 6 23 11 0 20 -4 20 -8z
m979 -106 c2 -45 -6 -27 -12 29 -4 34 -3 42 3 25 4 -14 8 -38 9 -54z m8 -98
c-3 -8 -6 -5 -6 6 -1 11 2 17 5 13 3 -3 4 -12 1 -19z m21 -98 c0 -22 -1 -22
-8 5 -4 17 -8 39 -8 50 0 16 2 15 8 -5 4 -14 8 -36 8 -50z m40 -267 c10 -68
15 -123 11 -123 -4 0 -10 30 -14 68 -4 37 -13 98 -21 135 -8 38 -13 89 -13
115 l2 47 8 -60 c5 -33 17 -115 27 -182z m-1331 -25 c-3 -7 -5 -2 -5 12 0 14
2 19 5 13 2 -7 2 -19 0 -25z m1360 -220 c-3 -8 -6 -5 -6 6 -1 11 2 17 5 13 3
-3 4 -12 1 -19z m-1340 -40 c-3 -8 -6 -5 -6 6 -1 11 2 17 5 13 3 -3 4 -12 1
-19z m10 -100 c-2 -13 -4 -5 -4 17 -1 22 1 32 4 23 2 -10 2 -28 0 -40z m-1411
-143 c-4 -15 -2 -25 4 -25 6 0 8 -5 4 -11 -4 -8 -9 -7 -15 2 -12 20 -11 59 2
59 7 0 9 -10 5 -25z m-859 -1 c-3 -3 -12 -4 -19 -1 -8 3 -5 6 6 6 11 1 17 -2
13 -5z m390 -30 c-3 -3 -12 -4 -19 -1 -8 3 -5 6 6 6 11 1 17 -2 13 -5z m58
-24 c3 -5 1 -10 -4 -10 -6 0 -11 5 -11 10 0 6 2 10 4 10 3 0 8 -4 11 -10z
m402 -22 c-3 -8 -6 -5 -6 6 -1 11 2 17 5 13 3 -3 4 -12 1 -19z m33 2 c0 -5 -2
-10 -4 -10 -3 0 -8 5 -11 10 -3 6 -1 10 4 10 6 0 11 -4 11 -10z m-492 -41 c-3
-8 -7 -3 -11 10 -4 17 -3 21 5 13 5 -5 8 -16 6 -23z m56 -14 c-4 -8 -8 -15
-10 -15 -2 0 -4 7 -4 15 0 8 4 15 10 15 5 0 7 -7 4 -15z m-34 -15 c0 -5 -5
-10 -11 -10 -5 0 -7 5 -4 10 3 6 8 10 11 10 2 0 4 -4 4 -10z m-40 -10 c-8 -5
-19 -10 -25 -10 -5 0 -3 5 5 10 8 5 20 10 25 10 6 0 3 -5 -5 -10z m-843 -42
c-3 -8 -6 -5 -6 6 -1 11 2 17 5 13 3 -3 4 -12 1 -19z m-67 -8 c0 -5 -4 -10
-10 -10 -5 0 -10 5 -10 10 0 6 5 10 10 10 6 0 10 -4 10 -10z m-52 -33 c3 -21
-1 -27 -15 -26 -10 0 -13 3 -5 6 15 6 16 39 2 46 -6 3 -5 4 2 3 7 -1 14 -15
16 -29z m4267 13 c3 -5 -1 -10 -10 -10 -9 0 -13 5 -10 10 3 6 8 10 10 10 2 0
7 -4 10 -10z m-4339 -55 c-22 -22 -29 -15 -20 20 6 24 8 25 22 12 13 -14 13
-17 -2 -32z m129 25 c-3 -5 -11 -10 -16 -10 -6 0 -7 5 -4 10 3 6 11 10 16 10
6 0 7 -4 4 -10z m4223 -7 c-5 -25 -28 -28 -28 -4 0 12 6 21 16 21 9 0 14 -7
12 -17z m-708 -2 c0 -5 -7 -12 -16 -15 -14 -5 -15 -4 -4 9 14 17 20 19 20 6z
m34 -7 c3 -8 2 -12 -4 -9 -6 3 -10 10 -10 16 0 14 7 11 14 -7z m-3594 -7 c0
-2 -9 -14 -20 -27 -11 -13 -20 -18 -20 -11 0 13 21 40 33 41 4 0 7 -2 7 -3z
m4280 -37 c0 -25 -18 -36 -26 -16 -8 21 3 49 16 41 5 -3 10 -15 10 -25z
m-4343 -3 c-1 -5 -5 -7 -8 -5 -3 2 -13 -3 -22 -11 -18 -14 -20 -12 -11 12 6
16 47 20 41 4z m3061 1 c-2 -7 3 -12 10 -10 8 1 11 -2 8 -7 -4 -5 0 -12 6 -14
8 -3 6 -6 -4 -6 -18 -1 -42 32 -31 43 10 9 13 7 11 -6z m162 2 c0 -5 -4 -10
-10 -10 -5 0 -10 5 -10 10 0 6 5 10 10 10 6 0 10 -4 10 -10z m-3936 -14 c-21
-15 -30 -14 -19 3 3 6 14 11 23 11 13 0 13 -2 -4 -14z m2924 -33 c-2 -10 -11
-19 -21 -21 -16 -3 -17 -1 -5 17 16 25 31 27 26 4z m-2845 -10 c-7 -2 -19 -2
-25 0 -7 3 -2 5 12 5 14 0 19 -2 13 -5z m-113 -23 c0 -5 -2 -10 -4 -10 -3 0
-8 5 -11 10 -3 6 -1 10 4 10 6 0 11 -4 11 -10z m2967 -72 c-2 -13 -4 -3 -4 22
0 25 2 35 4 23 2 -13 2 -33 0 -45z m-2677 17 c0 -5 -5 -3 -10 5 -5 8 -10 20
-10 25 0 6 5 3 10 -5 5 -8 10 -19 10 -25z m-200 15 c0 -5 -2 -10 -4 -10 -3 0
-8 5 -11 10 -3 6 -1 10 4 10 6 0 11 -4 11 -10z m5080 -6 c0 -8 -19 -13 -24 -6
-3 5 1 9 9 9 8 0 15 -2 15 -3z m-5200 -18 c0 -2 -8 -10 -17 -17 -16 -13 -17
-12 -4 4 13 16 21 21 21 13z m5345 -6 c3 -5 1 -10 -4 -10 -6 0 -11 5 -11 10 0
6 2 10 4 10 3 0 8 -4 11 -10z"/>
<path d="M719 6020 c-7 -35 -4 -48 7 -38 3 4 4 21 2 40 l-3 33 -6 -35z"/>
<path d="M781 6014 c0 -11 3 -14 6 -6 3 7 2 16 -1 19 -3 4 -6 -2 -5 -13z"/>
<path d="M2080 5383 c0 -16 60 -109 95 -148 l36 -40 -25 52 c-24 48 -106 154
-106 136z"/>
<path d="M2041 5330 c-1 -22 20 -93 25 -87 3 3 -1 27 -10 53 -8 27 -15 42 -15
34z"/>
<path d="M1770 5280 c-8 -5 -12 -12 -9 -15 4 -3 12 1 19 10 14 17 11 19 -10 5z"/>
<path d="M1852 5244 c-12 -8 -22 -12 -22 -7 0 4 -6 -3 -13 -17 -17 -31 -13
-38 8 -16 9 9 20 14 23 12 4 -2 12 7 19 20 13 28 14 28 -15 8z"/>
<path d="M2071 5214 c0 -11 3 -14 6 -6 3 7 2 16 -1 19 -3 4 -6 -2 -5 -13z"/>
<path d="M2132 5180 c0 -19 4 -48 8 -65 7 -27 8 -28 8 -5 1 14 -3 43 -7 65
l-9 40 0 -35z"/>
<path d="M2330 5206 c0 -2 7 -7 16 -10 8 -3 12 -2 9 4 -6 10 -25 14 -25 6z"/>
<path d="M2022 5180 c0 -14 2 -19 5 -12 2 6 2 18 0 25 -3 6 -5 1 -5 -13z"/>
<path d="M1595 5179 c-11 -16 -1 -19 13 -3 7 8 8 14 3 14 -5 0 -13 -5 -16 -11z"/>
<path d="M2081 5175 c0 -11 4 -27 9 -35 9 -13 10 -13 9 0 0 8 -4 24 -9 35 l-9
20 0 -20z"/>
<path d="M2246 5137 c3 -10 9 -15 12 -12 3 3 0 11 -7 18 -10 9 -11 8 -5 -6z"/>
<path d="M2015 5070 c3 -5 11 -10 16 -10 6 0 7 5 4 10 -3 6 -11 10 -16 10 -6
0 -7 -4 -4 -10z"/>
<path d="M2090 5060 c0 -5 12 -10 28 -10 21 0 24 2 12 10 -20 13 -40 13 -40 0z"/>
<path d="M2120 4990 c-11 -8 -7 -9 15 -4 37 8 45 14 19 14 -10 0 -26 -5 -34
-10z"/>
<path d="M2602 4955 c0 -16 2 -22 5 -12 2 9 2 23 0 30 -3 6 -5 -1 -5 -18z"/>
<path d="M2551 4924 c0 -11 3 -14 6 -6 3 7 2 16 -1 19 -3 4 -6 -2 -5 -13z"/>
<path d="M2512 4905 c0 -16 4 -41 8 -55 8 -24 8 -24 8 5 0 17 -4 41 -8 55 -8
24 -8 24 -8 -5z"/>
<path d="M2542 4870 c0 -19 2 -27 5 -17 2 9 2 25 0 35 -3 9 -5 1 -5 -18z"/>
<path d="M2967 4861 c-4 -17 -3 -21 5 -13 5 5 8 16 6 23 -3 8 -7 3 -11 -10z"/>
<path d="M2160 4859 c0 -8 5 -21 10 -29 8 -12 9 -10 7 7 -4 26 -17 43 -17 22z"/>
<path d="M2210 4815 c13 -14 26 -25 28 -25 3 0 -5 11 -18 25 -13 14 -26 25
-28 25 -3 0 5 -11 18 -25z"/>
<path d="M3001 4803 c-1 -6 -4 -20 -7 -30 -5 -17 -5 -17 6 0 6 10 9 23 6 30
-3 9 -5 9 -5 0z"/>
<path d="M3106 4773 c-6 -14 -5 -15 5 -6 7 7 10 15 7 18 -3 3 -9 -2 -12 -12z"/>
<path d="M2275 4710 c-3 -5 -1 -10 4 -10 6 0 11 5 11 10 0 6 -2 10 -4 10 -3 0
-8 -4 -11 -10z"/>
<path d="M3171 4483 c-10 -26 -10 -27 4 -9 8 11 15 23 15 28 0 15 -7 8 -19
-19z"/>
<path d="M3234 4468 l-19 -23 23 19 c21 18 27 26 19 26 -2 0 -12 -10 -23 -22z"/>
<path d="M3590 4320 c-11 -22 -18 -40 -15 -40 2 0 14 18 25 40 11 22 18 40 15
40 -2 0 -14 -18 -25 -40z"/>
<path d="M3845 4970 c-13 -6 -15 -9 -5 -9 8 0 22 4 30 9 18 12 2 12 -25 0z"/>
<path d="M6283 4490 c-13 -5 -23 -11 -23 -14 0 -7 40 6 46 15 6 10 6 10 -23
-1z"/>
<path d="M6165 4411 c-3 -10 -23 -30 -44 -44 -21 -14 -41 -35 -44 -46 -6 -25
8 -28 22 -4 5 10 13 15 17 11 3 -4 14 3 24 15 27 34 52 87 41 87 -5 0 -12 -8
-16 -19z"/>
<path d="M6035 4269 c-11 -17 1 -21 15 -4 8 9 8 15 2 15 -6 0 -14 -5 -17 -11z"/>
<path d="M4768 4683 c6 -2 18 -2 25 0 6 3 1 5 -13 5 -14 0 -19 -2 -12 -5z"/>
<path d="M1618 4609 l-33 -31 38 27 c20 15 37 29 37 31 0 10 -12 2 -42 -27z"/>
<path d="M3790 4320 c-19 -16 -32 -30 -28 -30 16 0 60 21 54 27 -3 3 -1 12 5
20 18 21 7 15 -31 -17z"/>
<path d="M4433 4149 c24 -18 27 -27 27 -77 0 -91 12 -192 23 -192 5 0 7 21 3
53 -3 28 -8 89 -12 133 -6 74 -9 83 -31 93 -37 17 -41 13 -10 -10z"/>
<path d="M4225 3552 c6 -5 21 -13 35 -17 17 -5 22 -4 15 3 -5 5 -21 13 -35 17
-17 5 -22 4 -15 -3z"/>
<path d="M5682 3190 c0 -19 2 -27 5 -17 2 9 2 25 0 35 -3 9 -5 1 -5 -18z"/>
<path d="M6134 3046 c17 -8 24 -15 16 -18 -7 -2 5 -4 26 -5 l39 -1 -40 18
c-22 10 -47 18 -55 18 -8 0 -2 -5 14 -12z"/>
<path d="M6210 3009 c-12 -8 -10 -9 9 -4 18 6 22 4 16 -6 -5 -8 -5 -11 0 -7 4
4 17 3 27 -3 16 -9 19 -8 16 3 -3 7 -10 13 -15 13 -6 0 -15 3 -19 8 -10 9 -16
9 -34 -4z"/>
<path d="M1440 4057 c0 -3 17 -16 39 -29 21 -13 39 -26 39 -31 0 -4 3 -13 5
-20 4 -9 6 -9 6 1 1 9 9 9 34 -4 l32 -16 -20 20 c-21 21 -135 88 -135 79z"/>
<path d="M468 3657 c-3 -19 -2 -25 4 -19 6 6 8 18 6 28 -3 14 -5 12 -10 -9z"/>
<path d="M3385 3740 c3 -5 10 -10 16 -10 5 0 9 5 9 10 0 6 -7 10 -16 10 -8 0
-12 -4 -9 -10z"/>
<path d="M903 3634 c8 -8 178 -36 184 -31 4 4 -153 37 -176 37 -8 0 -11 -3 -8
-6z"/>
<path d="M1190 3565 c19 -7 42 -13 50 -13 8 0 -1 6 -20 13 -19 7 -42 13 -50
13 -8 0 1 -6 20 -13z"/>
<path d="M1060 3280 c-25 -22 -44 -45 -42 -51 2 -10 0 -10 -11 0 -12 9 -19 5
-36 -21 -29 -46 -66 -98 -91 -130 -17 -22 -19 -31 -10 -48 6 -11 8 -26 5 -33
-4 -6 3 -1 14 12 23 25 27 21 11 -10 -6 -10 -9 -19 -7 -19 3 0 24 32 48 71 24
39 62 97 85 128 39 55 53 79 50 92 0 4 8 16 18 28 29 32 16 25 -34 -19z m-70
-121 c-22 -28 -40 -58 -40 -67 0 -19 -39 -73 -40 -55 0 6 -10 9 -22 7 -13 -2
-18 -2 -11 1 6 4 31 32 54 63 56 75 81 102 91 102 5 0 -10 -23 -32 -51z"/>
<path d="M920 3075 c-7 -9 -10 -18 -7 -21 3 -3 10 4 17 15 13 25 8 27 -10 6z"/>
<path d="M1905 3291 c29 -13 134 -24 115 -12 -8 5 -42 12 -75 15 -38 4 -53 3
-40 -3z"/>
<path d="M2078 3258 c5 -5 16 -8 23 -6 8 3 3 7 -10 11 -17 4 -21 3 -13 -5z"/>
<path d="M1010 3131 c-30 -60 -70 -171 -70 -195 1 -18 41 75 84 197 18 48 12
47 -14 -2z"/>
<path d="M2120 3062 c0 -5 14 -7 30 -4 17 2 30 6 30 8 0 2 -13 4 -30 4 -16 0
-30 -4 -30 -8z"/>
<path d="M2124 3035 c-10 -8 -27 -15 -37 -15 -15 0 -15 -3 -5 -20 8 -12 14
-16 17 -8 2 6 16 22 30 34 29 26 26 32 -5 9z"/>
<path d="M2052 2980 c0 -14 2 -19 5 -12 2 6 2 18 0 25 -3 6 -5 1 -5 -13z"/>
<path d="M2057 2943 c-4 -3 -7 -11 -7 -17 0 -6 5 -5 12 2 6 6 9 14 7 17 -3 3
-9 2 -12 -2z"/>
<path d="M1995 2760 c-10 -11 -16 -20 -13 -20 3 0 15 9 28 20 13 11 19 20 13
20 -5 0 -18 -9 -28 -20z"/>
<path d="M1028 2712 c-7 -9 -30 -26 -51 -37 -44 -23 -43 -37 5 -49 51 -13 71
-3 66 34 -3 16 -2 28 0 25 8 -8 32 16 32 31 0 20 -36 17 -52 -4z"/>
<path d="M922 2640 c0 -19 2 -27 5 -17 2 9 2 25 0 35 -3 9 -5 1 -5 -18z"/>
<path d="M1284 2286 c23 -18 42 -20 51 -6 3 6 0 10 -7 10 -7 0 -24 3 -38 6
-24 5 -24 5 -6 -10z"/>
<path d="M4626 2822 c56 -47 106 -83 110 -79 6 6 -98 87 -111 87 -5 0 -5 -4 1
-8z"/>
<path d="M4602 2505 c0 -16 2 -22 5 -12 2 9 2 23 0 30 -3 6 -5 -1 -5 -18z"/>
<path d="M4612 2395 c0 -16 2 -22 5 -12 2 9 2 23 0 30 -3 6 -5 -1 -5 -18z"/>
<path d="M3967 2633 c3 -65 8 -152 12 -193 l6 -75 53 -5 54 -6 -6 76 c-3 41
-8 122 -12 180 l-6 105 -41 18 c-68 28 -67 30 -60 -100z"/>
<path d="M4110 2252 c-33 -27 -37 -89 -8 -132 31 -46 58 -49 81 -11 21 36 22
73 2 111 -22 43 -48 54 -75 32z m45 -71 c3 -5 1 -12 -5 -16 -5 -3 -10 1 -10 9
0 18 6 21 15 7z"/>
<path d="M2351 2384 c0 -11 3 -14 6 -6 3 7 2 16 -1 19 -3 4 -6 -2 -5 -13z"/>
<path d="M3638 2750 c14 -27 27 -48 29 -46 6 5 -34 83 -46 90 -5 3 3 -17 17
-44z"/>
<path d="M3480 2711 c0 -5 5 -13 10 -16 6 -3 10 -2 10 4 0 5 -4 13 -10 16 -5
3 -10 2 -10 -4z"/>
<path d="M3573 2336 c15 -15 33 -26 38 -26 18 0 -1 20 -34 36 l-32 15 28 -25z"/>
<path d="M5902 1750 c0 -19 2 -27 5 -17 2 9 2 25 0 35 -3 9 -5 1 -5 -18z"/>
<path d="M6038 1633 c7 -3 16 -2 19 1 4 3 -2 6 -13 5 -11 0 -14 -3 -6 -6z"/>
<path d="M3237 2239 c7 -7 15 -10 18 -7 3 3 -2 9 -12 12 -14 6 -15 5 -6 -5z"/>
<path d="M780 2279 c0 -11 4 -18 10 -14 5 3 7 12 3 20 -7 21 -13 19 -13 -6z"/>
<path d="M4646 6350 c2 -58 14 -63 14 -7 0 26 -4 47 -8 47 -5 0 -7 -18 -6 -40z"/>
<path d="M4662 6265 c0 -16 2 -22 5 -12 2 9 2 23 0 30 -3 6 -5 -1 -5 -18z"/>
<path d="M2379 6123 l-24 -26 27 19 c15 10 28 22 28 27 0 12 -5 8 -31 -20z"/>
<path d="M4683 5663 c3 -15 11 -75 17 -133 19 -174 17 -168 63 -200 23 -16 50
-37 59 -46 10 -10 20 -15 23 -13 5 5 -22 294 -30 315 -2 6 -34 32 -71 58 l-67
47 6 -28z"/>
<path d="M4832 5590 c0 -14 2 -19 5 -12 2 6 2 18 0 25 -3 6 -5 1 -5 -13z"/>
<path d="M4852 5420 c0 -14 2 -19 5 -12 2 6 2 18 0 25 -3 6 -5 1 -5 -13z"/>
<path d="M6175 3980 c3 -6 21 -17 38 -26 l32 -15 -30 25 c-30 26 -51 34 -40
16z"/>
<path d="M6277 3919 c7 -7 15 -10 18 -7 3 3 -2 9 -12 12 -14 6 -15 5 -6 -5z"/>
<path d="M6370 2950 c0 -5 4 -10 9 -10 6 0 13 5 16 10 3 6 -1 10 -9 10 -9 0
-16 -4 -16 -10z"/>
<path d="M6340 2929 c0 -11 41 -29 53 -22 18 10 4 28 -23 30 -17 1 -30 -2 -30
-8z"/>
<path d="M6154 2524 c3 -9 6 -22 6 -30 0 -8 4 -14 8 -14 5 0 7 14 4 30 -2 17
-9 30 -14 30 -6 0 -7 -7 -4 -16z"/>
</g>
</svg>
